  0
SECTION
  2
HEADER
  9
$ACADVER
  1
AC1009
  9
$INSBASE
 10
0.0
 20
0.0
 30
0.0
  9
$EXTMIN
 10
0.0
 20
0.0
 30
0.0
  9
$EXTMAX
 10
345.2777155661849
 20
345.20705362074642
 30
0.0
  9
$LIMMIN
 10
0.0
 20
0.0
  9
$LIMMAX
 10
345.2777155661849
 20
345.20705362074642
  9
$ORTHOMODE
 70
     0
  9
$REGENMODE
 70
     1
  9
$FILLMODE
 70
     1
  9
$QTEXTMODE
 70
     0
  9
$MIRRTEXT
 70
     0
  9
$DRAGMODE
 70
     2
  9
$LTSCALE
 40
1.0
  9
$OSMODE
 70
     0
  9
$ATTMODE
 70
     1
  9
$TEXTSIZE
 40
0.2
  9
$TRACEWID
 40
0.05
  9
$TEXTSTYLE
  7
STANDARD
  9
$CLAYER
  8
0
  9
$CELTYPE
  6
BYLAYER
  9
$CECOLOR
 62
   256
  9
$DIMSCALE
 40
1.0
  9
$DIMASZ
 40
1.7999999999999989
  9
$DIMEXO
 40
0.0625
  9
$DIMDLI
 40
0.38
  9
$DIMRND
 40
0.0
  9
$DIMDLE
 40
0.0
  9
$DIMEXE
 40
0.18
  9
$DIMTP
 40
0.0
  9
$DIMTM
 40
0.0
  9
$DIMTXT
 40
1.7999999999999989
  9
$DIMCEN
 40
0.09
  9
$DIMTSZ
 40
0.0
  9
$DIMTOL
 70
     0
  9
$DIMLIM
 70
     0
  9
$DIMTIH
 70
     1
  9
$DIMTOH
 70
     1
  9
$DIMSE1
 70
     0
  9
$DIMSE2
 70
     0
  9
$DIMTAD
 70
     0
  9
$DIMZIN
 70
     0
  9
$DIMBLK
  1

  9
$DIMASO
 70
     1
  9
$DIMSHO
 70
     1
  9
$DIMPOST
  1

  9
$DIMAPOST
  1

  9
$DIMALT
 70
     0
  9
$DIMALTD
 70
     2
  9
$DIMALTF
 40
25.399999999999999
  9
$DIMLFAC
 40
1.0
  9
$DIMTOFL
 70
     0
  9
$DIMTVP
 40
0.0
  9
$DIMTIX
 70
     0
  9
$DIMSOXD
 70
     0
  9
$DIMSAH
 70
     0
  9
$DIMBLK1
  1

  9
$DIMBLK2
  1

  9
$DIMSTYLE
  2
STANDARD
  9
$DIMCLRD
 70
     0
  9
$DIMCLRE
 70
     0
  9
$DIMCLRT
 70
     0
  9
$DIMTFAC
 40
1.0
  9
$DIMGAP
 40
0.09
  9
$LUNITS
 70
     2
  9
$LUPREC
 70
     4
  9
$SKETCHINC
 40
0.1
  9
$FILLETRAD
 40
0.0
  9
$AUNITS
 70
     0
  9
$AUPREC
 70
     0
  9
$MENU
  1
.
  9
$ELEVATION
 40
0.0
  9
$PELEVATION
 40
0.0
  9
$THICKNESS
 40
0.0
  9
$LIMCHECK
 70
     0
  9
$BLIPMODE
 70
     0
  9
$CHAMFERA
 40
0.0
  9
$CHAMFERB
 40
0.0
  9
$SKPOLY
 70
     0
  9
$TDCREATE
 40
2460885.3494899878
  9
$TDUPDATE
 40
2460885.3494899878
  9
$TDINDWG
 40
0.0000052315
  9
$TDUSRTIMER
 40
0.0000052315
  9
$USRTIMER
 70
     1
  9
$ANGBASE
 50
0.0
  9
$ANGDIR
 70
     0
  9
$PDMODE
 70
     0
  9
$PDSIZE
 40
0.0
  9
$PLINEWID
 40
0.0
  9
$COORDS
 70
     0
  9
$SPLFRAME
 70
     0
  9
$SPLINETYPE
 70
     6
  9
$SPLINESEGS
 70
     8
  9
$ATTDIA
 70
     1
  9
$ATTREQ
 70
     1
  9
$HANDLING
 70
     1
  9
$HANDSEED
  5
38E
  9
$SURFTAB1
 70
     6
  9
$SURFTAB2
 70
     6
  9
$SURFTYPE
 70
     6
  9
$SURFU
 70
     6
  9
$SURFV
 70
     6
  9
$UCSNAME
  2

  9
$UCSORG
 10
0.0
 20
0.0
 30
0.0
  9
$UCSXDIR
 10
1.0
 20
0.0
 30
0.0
  9
$UCSYDIR
 10
0.0
 20
1.0
 30
0.0
  9
$PUCSNAME
  2

  9
$PUCSORG
 10
0.0
 20
0.0
 30
0.0
  9
$PUCSXDIR
 10
1.0
 20
0.0
 30
0.0
  9
$PUCSYDIR
 10
0.0
 20
1.0
 30
0.0
  9
$USERI1
 70
     0
  9
$USERI2
 70
     0
  9
$USERI3
 70
     0
  9
$USERI4
 70
     0
  9
$USERI5
 70
     0
  9
$USERR1
 40
0.0
  9
$USERR2
 40
0.0
  9
$USERR3
 40
0.0
  9
$USERR4
 40
0.0
  9
$USERR5
 40
0.0
  9
$WORLDVIEW
 70
     1
  9
$SHADEDGE
 70
     3
  9
$SHADEDIF
 70
    70
  9
$TILEMODE
 70
     1
  9
$MAXACTVP
 70
    64
  9
$PLIMCHECK
 70
     0
  9
$PEXTMIN
 10
0.0
 20
0.0
 30
0.0
  9
$PEXTMAX
 10
345.2777155661849
 20
345.20705362074642
 30
0.0
  9
$PLIMMIN
 10
0.0
 20
0.0
  9
$PLIMMAX
 10
345.2777155661849
 20
345.20705362074642
  9
$UNITMODE
 70
     0
  9
$VISRETAIN
 70
     1
  9
$PLINEGEN
 70
     0
  9
$PSLTSCALE
 70
     1
  0
ENDSEC
  0
SECTION
  2
TABLES
  0
TABLE
  2
VPORT
 70
     1
  0
VPORT
  2
*ACTIVE
 70
     0
 10
0.0
 20
0.0
 11
1.0
 21
1.0
 12
-0.0000562861383742
 22
-0.0551582135189222
 13
0.0
 23
0.0
 14
1.0
 24
1.0
 15
0.0
 25
0.0
 16
0.0
 26
0.0
 36
1.0
 17
0.0
 27
0.0
 37
0.0
 40
345.20705362074642
 41
1.00020469438471
 42
50.0
 43
0.0
 44
0.0
 50
0.0
 51
0.0
 71
     0
 72
   100
 73
     1
 74
     1
 75
     0
 76
     0
 77
     0
 78
     0
  0
ENDTAB
  0
TABLE
  2
LTYPE
 70
    59
  0
LTYPE
  2
CONTINUOUS
 70
     0
  3
Solid line
 72
    65
 73
     0
 40
0.0
  0
LTYPE
  2
BY_STANDARD
 70
     0
  3
By Standard ____________    ____    ____   _
 72
    65
 73
     6
 40
1.2402999999999991
 49
0.6614
 49
-0.0827
 49
0.1654
 49
-0.0827
 49
0.1654
 49
-0.0827
  0
LTYPE
  2
CHAIN
 70
     0
  3
Chain ____ _ ____ _ ____ _ ____ _ ____ _ ____
 72
    65
 73
     4
 40
0.7087
 49
0.4724000000000001
 49
-0.0591
 49
0.1181
 49
-0.0591
  0
LTYPE
  2
DASH_DOT
 70
     0
  3
Dash dot __ . __ . __ . __ . __ . __ . __ . __
 72
    65
 73
     4
 40
0.37
 49
0.24
 49
-0.06
 49
0.01
 49
-0.06
  0
LTYPE
  2
DOUBLE_DASH_DOT
 70
     0
  3
Double-Dash Dot __ __ . __ __ . __ __ . __ _
 72
    65
 73
     6
 40
0.4398
 49
0.24
 49
-0.06
 49
0.0098
 49
-0.06
 49
0.01
 49
-0.06
  0
LTYPE
  2
DASH_TRIPLE_DOT
 70
     0
  3
Dash Triple-Dot _ . . . _ . . . _ . . . _
 72
    65
 73
     8
 40
0.51
 49
0.24
 49
-0.06
 49
0.01
 49
-0.06
 49
0.01
 49
-0.06
 49
0.01
 49
-0.06
  0
LTYPE
  2
DASHED
 70
     0
  3
Dashed __ __ __ __ __ __ __ __ __ __ __ __ __ _
 72
    65
 73
     2
 40
0.2067
 49
0.1654
 49
-0.0413
  0
LTYPE
  2
DASH_DOUBLE_DOT
 70
     0
  3
Dash Double-Dot __ . . __ . . __ . . __ . .
 72
    65
 73
     6
 40
0.4398
 49
0.24
 49
-0.06
 49
0.0098
 49
-0.06
 49
0.01
 49
-0.06
  0
LTYPE
  2
DASHED_SPACE
 70
     0
  3
Dashed Space __ __ __ __ __ __ __ __ __ __ __ _
 72
    65
 73
     2
 40
0.2067
 49
0.1654
 49
-0.0413
  0
LTYPE
  2
DOTTED
 70
     0
  3
Dotted . . . . . . . . . . . . . . . . . . . . 
 72
    65
 73
     2
 40
0.0482
 49
0.0069
 49
-0.0413
  0
LTYPE
  2
DOUBLE_DASH_CHAIN
 70
     0
  3
Double-Dash Chain ______  __  __  ______  __  _
 72
    65
 73
     6
 40
1.2402999999999991
 49
0.6614
 49
-0.0827
 49
0.1654
 49
-0.0827
 49
0.1654
 49
-0.0827
  0
LTYPE
  2
DOUBLE_DASH_DOUBLE_DOT
 70
     0
  3
Double-Dash Double-dot _ _ . . _ _ . . _
 72
    65
 73
     8
 40
0.7400000000000001
 49
0.24
 49
-0.06
 49
0.24
 49
-0.06
 49
0.01
 49
-0.06
 49
0.01
 49
-0.06
  0
LTYPE
  2
DOUBLE_DASH_TRIPLE_DOT
 70
     0
  3
Double Dash Triple Dot __ __ . . . __ __ . .
 72
    65
 73
    10
 40
0.8100000000000001
 49
0.24
 49
-0.06
 49
0.24
 49
-0.06
 49
0.01
 49
-0.06
 49
0.01
 49
-0.06
 49
0.01
 49
-0.06
  0
LTYPE
  2
LONG_DASH_DOTTED
 70
     0
  3
Long Dash Dotted ____ . ____ . ____ . ____ . _
 72
    65
 73
     4
 40
0.3543
 49
0.2362
 49
-0.0295
 49
0.0591
 49
-0.0295
  0
LTYPE
  2
LONG_DASH_DOUBLE_DOT
 70
     0
  3
Long Dash Double Dot ________  .  .  ________  
 72
    65
 73
     6
 40
0.6799999999999999
 49
0.48
 49
-0.06
 49
0.01
 49
-0.06
 49
0.01
 49
-0.06
  0
LTYPE
  2
LONG_DASH_TRIPLE_DOT
 70
     0
  3
Long Dash Triple Dot ____ ... ____ ... ____
 72
    65
 73
     8
 40
0.3689
 49
0.2362
 49
-0.0295
 49
0.0049
 49
-0.0295
 49
0.0049
 49
-0.0295
 49
0.0049
 49
-0.0295
  0
LTYPE
  2
BORDER
 70
     0
  3
Border __ __ . __ __ . __ __ . __ __ . __ __ .
 72
    65
 73
     6
 40
1.75
 49
0.5
 49
-0.25
 49
0.5
 49
-0.25
 49
0.0
 49
-0.25
  0
LTYPE
  2
BORDER2
 70
     0
  3
Border (.5x) __.__.__.__.__.__.__.__.__.__.__.
 72
    65
 73
     6
 40
0.875
 49
0.25
 49
-0.125
 49
0.25
 49
-0.125
 49
0.0
 49
-0.125
  0
LTYPE
  2
BORDERX2
 70
     0
  3
Border (2x) ____  ____  .  ____  ____  .  ___
 72
    65
 73
     6
 40
3.5
 49
1.0
 49
-0.5
 49
1.0
 49
-0.5
 49
0.0
 49
-0.5
  0
LTYPE
  2
CENTER
 70
     0
  3
Center ____ _ ____ _ ____ _ ____ _ ____ _ ____
 72
    65
 73
     4
 40
2.0
 49
1.25
 49
-0.25
 49
0.25
 49
-0.25
  0
LTYPE
  2
CENTER2
 70
     0
  3
Center (.5x) ___ _ ___ _ ___ _ ___ _ ___ _ ___
 72
    65
 73
     4
 40
1.125
 49
0.75
 49
-0.125
 49
0.125
 49
-0.125
  0
LTYPE
  2
CENTERX2
 70
     0
  3
Center (2x) ________  __  ________  __  _____
 72
    65
 73
     4
 40
4.0
 49
2.5
 49
-0.5
 49
0.5
 49
-0.5
  0
LTYPE
  2
DASHDOT2
 70
     0
  3
Dash dot (.5x) _._._._._._._._._._._._._._._.
 72
    65
 73
     4
 40
0.5
 49
0.25
 49
-0.125
 49
0.0
 49
-0.125
  0
LTYPE
  2
DASHDOTX2
 70
     0
  3
Dash dot (2x) ____  .  ____  .  ____  .  ___
 72
    65
 73
     4
 40
2.0
 49
1.0
 49
-0.5
 49
0.0
 49
-0.5
  0
LTYPE
  2
DASHED2
 70
     0
  3
Dashed (.5x) _ _ _ _ _ _ _ _ _ _ _ _ _ _ _ _ _
 72
    65
 73
     2
 40
0.375
 49
0.25
 49
-0.125
  0
LTYPE
  2
DASHEDX2
 70
     0
  3
Dashed (2x) ____  ____  ____  ____  ____  ___
 72
    65
 73
     2
 40
1.5
 49
1.0
 49
-0.5
  0
LTYPE
  2
DIVIDE
 70
     0
  3
Divide ____ . . ____ . . ____ . . ____ . . ____
 72
    65
 73
     6
 40
1.25
 49
0.5
 49
-0.25
 49
0.0
 49
-0.25
 49
0.0
 49
-0.25
  0
LTYPE
  2
DIVIDE2
 70
     0
  3
Divide (.5x) __..__..__..__..__..__..__..__.._
 72
    65
 73
     6
 40
0.625
 49
0.25
 49
-0.125
 49
0.0
 49
-0.125
 49
0.0
 49
-0.125
  0
LTYPE
  2
DIVIDEX2
 70
     0
  3
Divide (2x) ________  .  .  ________  .  .  _
 72
    65
 73
     6
 40
2.5
 49
1.0
 49
-0.5
 49
0.0
 49
-0.5
 49
0.0
 49
-0.5
  0
LTYPE
  2
DOT
 70
     0
  3
Dot . . . . . . . . . . . . . . . . . . . . . .
 72
    65
 73
     2
 40
0.25
 49
0.0
 49
-0.25
  0
LTYPE
  2
DOT2
 70
     0
  3
Dot (.5x) .....................................
 72
    65
 73
     2
 40
0.125
 49
0.0
 49
-0.125
  0
LTYPE
  2
DOTX2
 70
     0
  3
Dot (2x) .  .  .  .  .  .  .  .  .  .  .  .  . 
 72
    65
 73
     2
 40
0.5
 49
0.0
 49
-0.5
  0
LTYPE
  2
HIDDEN
 70
     0
  3
Hidden __ __ __ __ __ __ __ __ __ __ __ __ __ _
 72
    65
 73
     2
 40
0.375
 49
0.25
 49
-0.125
  0
LTYPE
  2
HIDDEN2
 70
     0
  3
Hidden (.5x) _ _ _ _ _ _ _ _ _ _ _ _ _ _ _ _ _
 72
    65
 73
     2
 40
0.1875
 49
0.125
 49
-0.0625
  0
LTYPE
  2
HIDDENX2
 70
     0
  3
Hidden (2x) ____ ____ ____ ____ ____ ____ ____
 72
    65
 73
     2
 40
0.75
 49
0.5
 49
-0.25
  0
LTYPE
  2
PHANTOM
 70
     0
  3
Phantom ______  __  __  ______  __  __  ______
 72
    65
 73
     6
 40
2.5
 49
1.25
 49
-0.25
 49
0.25
 49
-0.25
 49
0.25
 49
-0.25
  0
LTYPE
  2
PHANTOM2
 70
     0
  3
Phantom (.5x) ___ _ _ ___ _ _ ___ _ _ ___ _ _
 72
    65
 73
     6
 40
1.25
 49
0.625
 49
-0.125
 49
0.125
 49
-0.125
 49
0.125
 49
-0.125
  0
LTYPE
  2
PHANTOMX2
 70
     0
  3
Phantom (2x) ____________    ____    ____   _
 72
    65
 73
     6
 40
5.0
 49
2.5
 49
-0.5
 49
0.5
 49
-0.5
 49
0.5
 49
-0.5
  0
LTYPE
  2
ACAD_ISO02W100
 70
     0
  3
ISO dash __ __ __ __ __ __ __ __ __ __ __ __ __
 72
    65
 73
     2
 40
0.59
 49
0.47
 49
-0.12
  0
LTYPE
  2
ACAD_ISO03W100
 70
     0
  3
ISO dash space __    __    __    __    __    __
 72
    65
 73
     2
 40
1.179999999999999
 49
0.47
 49
-0.71
  0
LTYPE
  2
ACAD_ISO04W100
 70
     0
  3
ISO long-dash dot ____ . ____ . ____ . ____ . _
 72
    65
 73
     4
 40
1.179999999999999
 49
0.9399999999999998
 49
-0.12
 49
0.0
 49
-0.12
  0
LTYPE
  2
ACAD_ISO05W100
 70
     0
  3
ISO long-dash double-dot ____ .. ____ .. ____ .
 72
    65
 73
     6
 40
1.2999999999999989
 49
0.9399999999999998
 49
-0.12
 49
0.0
 49
-0.12
 49
0.0
 49
-0.12
  0
LTYPE
  2
ACAD_ISO06W100
 70
     0
  3
ISO long-dash triple-dot ____ ... ____ ... ____
 72
    65
 73
     8
 40
1.419999999999999
 49
0.9399999999999998
 49
-0.12
 49
0.0
 49
-0.12
 49
0.0
 49
-0.12
 49
0.0
 49
-0.12
  0
LTYPE
  2
ACAD_ISO07W100
 70
     0
  3
ISO dot . . . . . . . . . . . . . . . . . . . .
 72
    65
 73
     2
 40
0.12
 49
0.0
 49
-0.12
  0
LTYPE
  2
ACAD_ISO08W100
 70
     0
  3
ISO long-dash short-dash ____ __ ____ __ ____ _
 72
    65
 73
     4
 40
0.95
 49
0.47
 49
-0.12
 49
0.24
 49
-0.12
  0
LTYPE
  2
ACAD_ISO09W100
 70
     0
  3
ISO long-dash double-short-dash ____ __ __ ____
 72
    65
 73
     6
 40
1.3100000000000001
 49
0.47
 49
-0.12
 49
0.24
 49
-0.12
 49
0.24
 49
-0.12
  0
LTYPE
  2
ACAD_ISO10W100
 70
     0
  3
ISO dash dot __ . __ . __ . __ . __ . __ . __ .
 72
    65
 73
     4
 40
0.71
 49
0.47
 49
-0.12
 49
0.0
 49
-0.12
  0
LTYPE
  2
ACAD_ISO11W100
 70
     0
  3
ISO double-dash dot __ __ . __ __ . __ __ . __ 
 72
    65
 73
     6
 40
1.2999999999999989
 49
0.47
 49
-0.12
 49
0.47
 49
-0.12
 49
0.0
 49
-0.12
  0
LTYPE
  2
ACAD_ISO12W100
 70
     0
  3
ISO dash double-dot __ . . __ . . __ . . __ . .
 72
    65
 73
     6
 40
0.8299999999999999
 49
0.47
 49
-0.12
 49
0.0
 49
-0.12
 49
0.0
 49
-0.12
  0
LTYPE
  2
ACAD_ISO13W100
 70
     0
  3
ISO double-dash double-dot __ __ . . __ __ . . 
 72
    65
 73
     8
 40
1.419999999999999
 49
0.47
 49
-0.12
 49
0.47
 49
-0.12
 49
0.0
 49
-0.12
 49
0.0
 49
-0.12
  0
LTYPE
  2
ACAD_ISO14W100
 70
     0
  3
ISO dash triple-dot __ . . . __ . . . __ . . . 
 72
    65
 73
     8
 40
0.95
 49
0.47
 49
-0.12
 49
0.0
 49
-0.12
 49
0.0
 49
-0.12
 49
0.0
 49
-0.12
  0
LTYPE
  2
ACAD_ISO15W100
 70
     0
  3
ISO double-dash triple-dot __ __ . . . __ __ . 
 72
    65
 73
    10
 40
1.5399999999999989
 49
0.47
 49
-0.12
 49
0.47
 49
-0.12
 49
0.0
 49
-0.12
 49
0.0
 49
-0.12
 49
0.0
 49
-0.12
  0
LTYPE
  2
FENCELINE1
 70
     0
  3
Fenceline circle ----0-----0----0-----0----0---
 72
    65
 73
     4
 40
1.45
 49
0.25
 49
-0.1
 49
-0.1
 49
1.0
  0
LTYPE
  2
FENCELINE2
 70
     0
  3
Fenceline square ----[]-----[]----[]-----[]----
 72
    65
 73
     4
 40
1.45
 49
0.25
 49
-0.1
 49
-0.1
 49
1.0
  0
LTYPE
  2
TRACKS
 70
     0
  3
Tracks -|-|-|-|-|-|-|-|-|-|-|-|-|-|-|-|-|-|-|-|
 72
    65
 73
     2
 40
0.3
 49
0.15
 49
0.15
  0
LTYPE
  2
BATTING
 70
     0
  3
Batting SSSSSSSSSSSSSSSSSSSSSSSSSSSSSSSSSSSSSSS
 72
    65
 73
     4
 40
0.4001000000000001
 49
0.0001
 49
-0.1
 49
-0.2
 49
-0.1
  0
LTYPE
  2
HOT_WATER_SUPPLY
 70
     0
  3
Hot water supply ---- HW ---- HW ---- HW ----
 72
    65
 73
     3
 40
0.9
 49
0.5
 49
-0.2
 49
-0.2
  0
LTYPE
  2
GAS_LINE
 70
     0
  3
Gas line ----GAS----GAS----GAS----GAS----GAS---
 72
    65
 73
     3
 40
0.95
 49
0.5
 49
-0.2
 49
-0.25
  0
LTYPE
  2
ZIGZAG
 70
     0
  3
Zig zag /\/\/\/\/\/\/\/\/\/\/\/\/\/\/\/\/\/\/\/
 72
    65
 73
     4
 40
0.8001000000000001
 49
0.0001
 49
-0.2
 49
-0.4
 49
-0.2
  0
ENDTAB
  0
TABLE
  2
LAYER
 70
     1
  0
LAYER
  2
0
 70
     0
 62
     7
  6
CONTINUOUS
  0
ENDTAB
  0
TABLE
  2
STYLE
 70
     3
  0
STYLE
  2
STANDARD
 70
     0
 40
0.0
 41
1.0
 50
0.0
 71
     0
 42
0.2
  3
txt
  4

  0
STYLE
  2
ANNOTATIVE
 70
     0
 40
0.0
 41
1.0
 50
0.0
 71
     0
 42
0.2
  3
txt
  4

  0
STYLE
  2

 70
     1
 40
0.0
 41
1.0
 50
0.0
 71
     0
 42
0.2
  3
ltypeshp.shx
  4

  0
ENDTAB
  0
TABLE
  2
VIEW
 70
     0
  0
ENDTAB
  0
TABLE
  2
UCS
 70
     0
  0
ENDTAB
  0
TABLE
  2
APPID
 70
     3
  0
APPID
  2
ACAD
 70
     0
  0
APPID
  2
ACADANNOTATIVE
 70
     0
  0
APPID
  2
ACAD_MLEADERVER
 70
     0
  0
ENDTAB
  0
TABLE
  2
DIMSTYLE
 70
     2
  0
DIMSTYLE
  2
STANDARD
 70
     0
  3

  4

  5

  6

  7

 40
1.0
 41
0.18
 42
0.0625
 43
0.38
 44
0.18
 45
0.0
 46
0.0
 47
0.0
 48
0.0
140
0.18
141
0.09
142
0.0
143
25.399999999999999
144
1.0
145
0.0
146
1.0
147
0.09
 71
     0
 72
     0
 73
     1
 74
     1
 75
     0
 76
     0
 77
     0
 78
     0
170
     0
171
     2
172
     0
173
     0
174
     0
175
     0
176
     0
177
     0
178
     0
  0
DIMSTYLE
  2
ANNOTATIVE
 70
     0
  3

  4

  5

  6

  7

 40
1.0
 41
0.18
 42
0.0625
 43
0.38
 44
0.18
 45
0.0
 46
0.0
 47
0.0
 48
0.0
140
0.18
141
0.09
142
0.0
143
25.399999999999999
144
1.0
145
0.0
146
1.0
147
0.09
 71
     0
 72
     0
 73
     1
 74
     1
 75
     0
 76
     0
 77
     0
 78
     0
170
     0
171
     2
172
     0
173
     0
174
     0
175
     0
176
     0
177
     0
178
     0
  0
ENDTAB
  0
ENDSEC
  0
SECTION
  2
BLOCKS
  0
BLOCK
  8
0
  2
$MODEL_SPACE
 70
     0
 10
0.0
 20
0.0
 30
0.0
  3
$MODEL_SPACE
  1

  0
ENDBLK
  5
72
  8
0
  0
BLOCK
 67
     1
  8
0
  2
$PAPER_SPACE
 70
     0
 10
0.0
 20
0.0
 30
0.0
  3
$PAPER_SPACE
  1

  0
ENDBLK
  5
6E
 67
     1
  8
0
  0
ENDSEC
  0
SECTION
  2
ENTITIES
  0
POLYLINE
  5
B6
  8
0
 66
     1
 10
0.0
 20
0.0
 30
0.0
 70
     1
  0
VERTEX
  5
B7
  8
0
 10
-4.2999999999999989
 20
116.0
 30
0.0
 42
-0.9999999999999998
  0
VERTEX
  5
B8
  8
0
 10
4.2999999999999989
 20
116.0
 30
0.0
  0
VERTEX
  5
BA
  8
0
 10
4.2999999999999998
 20
100.0
 30
0.0
 42
-0.9999999999999998
  0
VERTEX
  5
BB
  8
0
 10
-4.2999999999999998
 20
100.0
 30
0.0
  0
SEQEND
  5
B9
  8
0
  0
POLYLINE
  5
BD
  8
0
 66
     1
 10
0.0
 20
0.0
 30
0.0
 70
     1
  0
VERTEX
  5
BE
  8
0
 10
-98.308946838994885
 20
-61.723909236273052
 30
0.0
 42
-0.9999999999999998
  0
VERTEX
  5
BF
  8
0
 10
-102.6089468389949
 20
-54.276090763726877
 30
0.0
  0
VERTEX
  5
C1
  8
0
 10
-88.752540378443868
 20
-46.276090763726891
 30
0.0
 42
-0.9999999999999998
  0
VERTEX
  5
C2
  8
0
 10
-84.452540378443871
 20
-53.723909236273073
 30
0.0
  0
SEQEND
  5
C0
  8
0
  0
POLYLINE
  5
C3
  8
0
 66
     1
 10
0.0
 20
0.0
 30
0.0
 70
     1
  0
VERTEX
  5
C4
  8
0
 10
102.6089468389948
 20
-54.276090763726963
 30
0.0
 42
-0.9999999999999998
  0
VERTEX
  5
C5
  8
0
 10
98.308946838994871
 20
-61.72390923627313
 30
0.0
  0
VERTEX
  5
C7
  8
0
 10
84.452540378443828
 20
-53.72390923627313
 30
0.0
 42
-0.9999999999999998
  0
VERTEX
  5
C8
  8
0
 10
88.752540378443825
 20
-46.276090763726948
 30
0.0
  0
SEQEND
  5
C6
  8
0
  0
POLYLINE
  5
C9
  8
0
 66
     1
 10
0.0
 20
0.0
 30
0.0
 70
     1
  0
VERTEX
  5
CA
  8
0
 10
-6.6046402234254664
 20
-149.85452521535379
 30
0.0
 42
0.0014686718313963
  0
VERTEX
  5
CB
  8
0
 10
-5.7241834711457242
 20
-149.89073928561649
 30
0.0
 42
-0.3650764796361303
  0
VERTEX
  5
CD
  8
0
 10
-2.132953091711673
 20
-154.0252320995246
 30
0.0
 42
0.0646269866433121
  0
VERTEX
  5
CE
  8
0
 10
-1.322132192535064
 20
-156.29906275310549
 30
0.0
 42
0.2780547079560542
  0
VERTEX
  5
CF
  8
0
 10
-0.4456663556343873
 20
-156.84464161334071
 30
0.0
 42
0.0073447325918155
  0
VERTEX
  5
D0
  8
0
 10
0.3915879525592479
 20
-156.84437798028549
 30
0.0
 42
0.2799474061279644
  0
VERTEX
  5
D1
  8
0
 10
1.2708752258485989
 20
-156.29197683394949
 30
0.0
 42
0.0637571682148182
  0
VERTEX
  5
D2
  8
0
 10
2.0575739859662359
 20
-154.0438026574142
 30
0.0
 42
-0.365104621261766
  0
VERTEX
  5
D3
  8
0
 10
5.6318711586624541
 20
-149.89423613752541
 30
0.0
 42
0.0014686718314058
  0
VERTEX
  5
D4
  8
0
 10
6.5123500466528643
 20
-149.85856430938429
 30
0.0
 42
-0.3650764796361305
  0
VERTEX
  5
D5
  8
0
 10
10.428630450347111
 20
-153.68658132424559
 30
0.0
 42
0.0646269866433123
  0
VERTEX
  5
D6
  8
0
 10
11.422091717350471
 20
-155.88675656332771
 30
0.0
 42
0.2780547079560525
  0
VERTEX
  5
D7
  8
0
 10
12.34011092849839
 20
-156.35907995249329
 30
0.0
 42
0.0073447325918136
  0
VERTEX
  5
D8
  8
0
 10
13.17455785350869
 20
-156.29057319784781
 30
0.0
 42
0.2799474061279604
  0
VERTEX
  5
D9
  8
0
 10
14.005893549263829
 20
-155.66834004507851
 30
0.0
 42
0.0637571682148184
  0
VERTEX
  5
DA
  8
0
 10
14.60672756773686
 20
-153.3635232303497
 30
0.0
 42
-0.3651046212617658
  0
VERTEX
  5
DB
  8
0
 10
17.830903367382671
 20
-148.93642564900989
 30
0.0
 42
0.0014686718314105
  0
VERTEX
  5
DC
  8
0
 10
18.705544949353762
 20
-148.82910531259569
 30
0.0
 42
-0.3650764796360849
  0
VERTEX
  5
DD
  8
0
 10
22.920813177361769
 20
-152.3251717067549
 30
0.0
 42
0.0646269866433124
  0
VERTEX
  5
DE
  8
0
 10
24.090303491369522
 20
-154.4370497281254
 30
0.0
 42
0.2780547079560529
  0
VERTEX
  5
DF
  8
0
 10
25.043766810377011
 20
-154.8329744119944
 30
0.0
 42
0.0073447325918136
  0
VERTEX
  5
E0
  8
0
 10
25.869853245592051
 20
-154.69668043690791
 30
0.0
 42
0.2799474061279672
  0
VERTEX
  5
E1
  8
0
 10
26.64770496191851
 20
-154.00875613667569
 30
0.0
 42
0.0637571682148193
  0
VERTEX
  5
E2
  8
0
 10
27.05867578748461
 20
-151.66263485938751
 30
0.0
 42
-0.3651046212616247
  0
VERTEX
  5
E3
  8
0
 10
29.91127385608295
 20
-146.98746782058149
 30
0.0
 42
0.001468671831401
  0
VERTEX
  5
E4
  8
0
 10
30.77425753661295
 20
-146.80921317502589
 30
0.0
 42
-0.3650764796361305
  0
VERTEX
  5
E5
  8
0
 10
35.260461674349052
 20
-149.9500632034399
 30
0.0
 42
0.0646269866433126
  0
VERTEX
  5
E6
  8
0
 10
36.598198270273791
 20
-151.95958980730211
 30
0.0
 42
0.2780547079560524
  0
VERTEX
  5
E7
  8
0
 10
37.580760556063247
 20
-152.27648097242621
 30
0.0
 42
0.0073447325918155
  0
VERTEX
  5
E8
  8
0
 10
38.392989032551377
 20
-152.07330679081599
 30
0.0
 42
0.2799474061279649
  0
VERTEX
  5
E9
  8
0
 10
39.112180294613438
 20
-151.32426936583951
 30
0.0
 42
0.0637571682148184
  0
VERTEX
  5
EA
  8
0
 10
39.330552984233897
 20
-148.9524566760094
 30
0.0
 42
-0.365104621261757
  0
VERTEX
  5
EB
  8
0
 10
41.792589752287618
 20
-144.060332645031
 30
0.0
 42
0.001468671831401
  0
VERTEX
  5
EC
  8
0
 10
42.638172517361987
 20
-143.8123299455915
 30
0.0
 42
-0.3650764796361312
  0
VERTEX
  5
ED
  8
0
 10
47.365457616460219
 20
-146.5770617695251
 30
0.0
 42
0.064626986643312
  0
VERTEX
  5
EE
  8
0
 10
48.862538077967088
 20
-148.47086388787861
 30
0.0
 42
0.2780547079560549
  0
VERTEX
  5
EF
  8
0
 10
49.867660540637921
 20
-148.7066126758375
 30
0.0
 42
0.0073447325918136
  0
VERTEX
  5
F0
  8
0
 10
50.660625811896352
 20
-148.4379103783609
 30
0.0
 42
0.2799474061279693
  0
VERTEX
  5
F1
  8
0
 10
51.316370520503263
 20
-147.6327445491207
 30
0.0
 42
0.0637571682148182
  0
VERTEX
  5
F2
  8
0
 10
51.340691839957593
 20
-145.25102446887809
 30
0.0
 42
-0.3651046212617754
  0
VERTEX
  5
F3
  8
0
 10
53.3957828589812
 20
-140.1744997240101
 30
0.0
 42
0.0014686718314058
  0
VERTEX
  5
F4
  8
0
 10
54.21833749481177
 20
-139.85839938773319
 30
0.0
 42
-0.3650764796360824
  0
VERTEX
  5
F5
  8
0
 10
59.155244252884259
 20
-142.22861417304699
 30
0.0
 42
0.0646269866433121
  0
VERTEX
  5
F6
  8
0
 10
60.80170575650282
 20
-143.99408886524961
 30
0.0
 42
0.2780547079560542
  0
VERTEX
  5
F7
  8
0
 10
61.822699471899512
 20
-144.14712640675509
 30
0.0
 42
0.0073447325918136
  0
VERTEX
  5
F8
  8
0
 10
62.59112448487808
 20
-143.81468416286901
 30
0.0
 42
0.2799474061279673
  0
VERTEX
  5
F9
  8
0
 10
63.17905876718428
 20
-142.9587481751158
 30
0.0
 42
0.0637571682148184
  0
VERTEX
  5
FA
  8
0
 10
63.009166862104273
 20
-140.58297065863849
 30
0.0
 42
-0.3651046212616248
  0
VERTEX
  5
FB
  8
0
 10
64.643635840430122
 20
-135.3558286344919
 30
0.0
 42
0.001468671831401
  0
VERTEX
  5
FC
  8
0
 10
65.437688381628107
 20
-134.97373425696171
 30
0.0
 42
-0.3650764796361403
  0
VERTEX
  5
FD
  8
0
 10
70.551362498733681
 20
-136.9336586153168
 30
0.0
 42
0.0646269866433125
  0
VERTEX
  5
FE
  8
0
 10
72.336248114804405
 20
-138.5590569385748
 30
0.0
 42
0.2780547079560479
  0
VERTEX
  5
FF
  8
0
 10
73.366318538203046
 20
-138.62836479403759
 30
0.0
 42
0.0073447325918136
  0
VERTEX
  5
100
  8
0
 10
74.10508955122161
 20
-138.23439495202601
 30
0.0
 42
0.2799474061279652
  0
VERTEX
  5
101
  8
0
 10
74.621300801580674
 20
-137.33338491853871
 30
0.0
 42
0.0637571682148187
  0
VERTEX
  5
102
  8
0
 10
74.258326274564453
 20
-134.9793603732231
 30
0.0
 42
-0.3651046212617654
  0
VERTEX
  5
103
  8
0
 10
75.461296090813875
 20
-129.63638683754851
 30
0.0
 42
0.001468671831401
  0
VERTEX
  5
104
  8
0
 10
76.221562248724325
 20
-129.19084119380841
 30
0.0
 42
-0.3650764796361305
  0
VERTEX
  5
105
  8
0
 10
81.477973067309478
 20
-130.7274321519651
 30
0.0
 42
0.0646269866433121
  0
VERTEX
  5
106
  8
0
 10
83.389404676542796
 20
-132.20193734860899
 30
0.0
 42
0.2780547079560526
  0
VERTEX
  5
107
  8
0
 10
84.421696859225364
 20
-132.187054285686
 30
0.0
 42
0.0073447325918136
  0
VERTEX
  5
108
  8
0
 10
85.125897473080883
 20
-131.734178649847
 30
0.0
 42
0.2799474061279676
  0
VERTEX
  5
109
  8
0
 10
85.566950390790566
 20
-130.79409064374229
 30
0.0
 42
0.0637571682148188
  0
VERTEX
  5
10A
  8
0
 10
85.013308777428819
 20
-128.4774847145508
 30
0.0
 42
-0.3651046212617654
  0
VERTEX
  5
10B
  8
0
 10
85.77677386594894
 20
-123.0542362747007
 30
0.0
 42
0.0014686718314058
  0
VERTEX
  5
10C
  8
0
 10
86.498194194728285
 20
-122.54820439749849
 30
0.0
 42
-0.3650764796360848
  0
VERTEX
  5
10D
  8
0
 10
91.862361168041673
 20
-123.65123619615019
 30
0.0
 42
0.0646269866433126
  0
VERTEX
  5
10E
  8
0
 10
93.887618508442117
 20
-124.9650356773726
 30
0.0
 42
0.2780547079560549
  0
VERTEX
  5
10F
  8
0
 10
94.915262716249089
 20
-124.866060740392
 30
0.0
 42
0.0073447325918155
  0
VERTEX
  5
110
  8
0
 10
95.580206592041321
 20
-124.35729312336279
 30
0.0
 42
0.279947406127964
  0
VERTEX
  5
111
  8
0
 10
95.943166042702813
 20
-123.3843832752178
 30
0.0
 42
0.0637571682148184
  0
VERTEX
  5
112
  8
0
 10
95.202541736588046
 20
-121.1206125923961
 30
0.0
 42
-0.3651046212616273
  0
VERTEX
  5
113
  8
0
 10
95.521421363176174
 20
-115.6531800719661
 30
0.0
 42
0.0014686718314058
  0
VERTEX
  5
114
  8
0
 10
96.199194929562537
 20
-115.0900295199546
 30
0.0
 42
-0.3650764796361508
  0
VERTEX
  5
115
  8
0
 10
101.6354204114233
 20
-115.75216166446791
 30
0.0
 42
0.0646269866433125
  0
VERTEX
  5
116
  8
0
 10
103.7610257295344
 20
-116.89651231148289
 30
0.0
 42
0.2780547079560545
  0
VERTEX
  5
117
  8
0
 10
104.7771831598122
 20
-116.7141041623205
 30
0.0
 42
0.0073447325918136
  0
VERTEX
  5
118
  8
0
 10
105.39844520575571
 20
-116.1528303286518
 30
0.0
 42
0.2799474061279664
  0
VERTEX
  5
119
  8
0
 10
105.6808957541091
 20
-115.1535731929871
 30
0.0
 42
0.0637571682148187
  0
VERTEX
  5
11A
  8
0
 10
104.758217487804
 20
-112.9577027769335
 30
0.0
 42
-0.3651046212617757
  0
VERTEX
  5
11B
  8
0
 10
104.6303895611596
 20
-107.4824710372811
 30
0.0
 42
0.0014686718314058
  0
VERTEX
  5
11C
  8
0
 10
105.2600058938913
 20
-106.86594948447311
 30
0.0
 42
-0.3650764796361421
  0
VERTEX
  5
11D
  8
0
 10
110.73211270063091
 20
-107.08277559467091
 30
0.0
 42
0.064626986643312
  0
VERTEX
  5
11E
  8
0
 10
112.9439204437609
 20
-108.0500619427271
 30
0.0
 42
0.2780547079560547
  0
VERTEX
  5
11F
  8
0
 10
113.9418287364651
 20
-107.7854344775206
 30
0.0
 42
0.0073447325918136
  0
VERTEX
  5
120
  8
0
 10
114.5152745561453
 20
-107.1753896119717
 30
0.0
 42
0.2799474061279694
  0
VERTEX
  5
121
  8
0
 10
114.7153365403921
 20
-106.1564350801592
 30
0.0
 42
0.0637571682148185
  0
VERTEX
  5
122
  8
0
 10
113.6167445855279
 20
-104.0430780861995
 30
0.0
 42
-0.3651046212617566
  0
VERTEX
  5
123
  8
0
 10
113.043059779411
 20
-98.596483891204301
 30
0.0
 42
0.001468671831401
  0
VERTEX
  5
124
  8
0
 10
113.62032888567521
 20
-97.930694186812474
 30
0.0
 42
-0.365076479636082
  0
VERTEX
  5
125
  8
0
 10
119.0919010493284
 20
-97.700771320705755
 30
0.0
 42
0.0646269866433124
  0
VERTEX
  5
126
  8
0
 10
121.37519200186939
 20
-98.484556238747956
 30
0.0
 42
0.2780547079560525
  0
VERTEX
  5
127
  8
0
 10
122.3482102419554
 20
-98.139470509617652
 30
0.0
 42
0.0073447325918136
  0
VERTEX
  5
128
  8
0
 10
122.8700236480541
 20
-97.484714360118559
 30
0.0
 42
0.2799474061279583
  0
VERTEX
  5
129
  8
0
 10
122.98636568869721
 20
-96.452843406451905
 30
0.0
 42
0.0637571682148189
  0
VERTEX
  5
12A
  8
0
 10
121.7191709934785
 20
-94.436063876701425
 30
0.0
 42
-0.365104621261626
  0
VERTEX
  5
12B
  8
0
 10
120.7034470856217
 20
-89.054353412107773
 30
0.0
 42
0.001468671831401
  0
VERTEX
  5
12C
  8
0
 10
121.2245273347588
 20
-88.343726276766915
 30
0.0
 42
-0.3650764796361301
  0
VERTEX
  5
12D
  8
0
 10
126.6591524453232
 20
-87.668584533093906
 30
0.0
 42
0.0646269866433116
  0
VERTEX
  5
12E
  8
0
 10
128.9987316827025
 20
-88.263652061807946
 30
0.0
 42
0.2780547079560545
  0
VERTEX
  5
12F
  8
0
 10
129.94038459431931
 20
-87.840404557346105
 30
0.0
 42
0.0073447325918136
  0
VERTEX
  5
130
  8
0
 10
130.40709300471201
 20
-87.145294418044529
 30
0.0
 42
0.2799474061279652
  0
VERTEX
  5
131
  8
0
 10
130.43894086466599
 20
-86.107373973473585
 30
0.0
 42
0.063757168214818
  0
VERTEX
  5
132
  8
0
 10
129.01157640071719
 20
-84.200593242957694
 30
0.0
 42
-0.3651046212617567
  0
VERTEX
  5
133
  8
0
 10
127.5605728661465
 20
-78.919580903984354
 30
0.0
 42
0.001468671831401
  0
VERTEX
  5
134
  8
0
 10
128.02199655506899
 20
-78.168845444037828
 30
0.0
 42
-0.3650764796361299
  0
VERTEX
  5
135
  8
0
 10
133.3835080790837
 20
-77.052977779712677
 30
0.0
 42
0.0646269866433119
  0
VERTEX
  5
136
  8
0
 10
135.76380608747979
 20
-77.455367842874125
 30
0.0
 42
0.278054707956055
  0
VERTEX
  5
137
  8
0
 10
136.6678271258624
 20
-76.956775205392063
 30
0.0
 42
0.0073447325918136
  0
VERTEX
  5
138
  8
0
 10
137.07632467307951
 20
-76.225936919579937
 30
0.0
 42
0.2799474061279694
  0
VERTEX
  5
139
  8
0
 10
137.023466410091
 20
-75.18887417341854
 30
0.0
 42
0.0637571682148185
  0
VERTEX
  5
13A
  8
0
 10
135.4454310524209
 20
-73.404781553302115
 30
0.0
 42
-0.3651046212617738
  0
VERTEX
  5
13B
  8
0
 10
133.5688040802593
 20
-68.259611605760696
 30
0.0
 42
0.001468671831401
  0
VERTEX
  5
13C
  8
0
 10
133.9675005104483
 20
-67.473763841829765
 30
0.0
 42
-0.3650764796360844
  0
VERTEX
  5
13D
  8
0
 10
139.22021847330751
 20
-65.924596172053867
 30
0.0
 42
0.0646269866433123
  0
VERTEX
  5
13E
  8
0
 10
141.62539476219629
 20
-66.131630930182126
 30
0.0
 42
0.278054707956051
  0
VERTEX
  5
13F
  8
0
 10
142.48576781648711
 20
-65.561011211420265
 30
0.0
 42
0.0073447325918136
  0
VERTEX
  5
140
  8
0
 10
142.8333360167492
 20
-64.799308387309878
 30
0.0
 42
0.2799474061279679
  0
VERTEX
  5
141
  8
0
 10
142.6961233938373
 20
-63.77000482103039
 30
0.0
 42
0.0637571682148184
  0
VERTEX
  5
142
  8
0
 10
140.97791870739391
 20
-62.120473153345742
 30
0.0
 42
-0.3651046212616262
  0
VERTEX
  5
143
  8
0
 10
138.6881569405187
 20
-57.14538585434628
 30
0.0
 42
0.001468671831401
  0
VERTEX
  5
144
  8
0
 10
139.02147285301169
 20
-56.329655473643058
 30
0.0
 42
-0.3650764796361298
  0
VERTEX
  5
145
  8
0
 10
144.1304412833108
 20
-54.357497253662856
 30
0.0
 42
0.0646269866433121
  0
VERTEX
  5
146
  8
0
 10
146.54448980131571
 20
-54.367798924600912
 30
0.0
 42
0.2780547079560551
  0
VERTEX
  5
147
  8
0
 10
147.35548923079
 20
-53.728949504641967
 30
0.0
 42
0.0073447325918155
  0
VERTEX
  5
148
  8
0
 10
147.63981507506909
 20
-52.941451148855649
 30
0.0
 42
0.2799474061279687
  0
VERTEX
  5
149
  8
0
 10
147.4191612196008
 20
-51.926756607868548
 30
0.0
 42
0.0637571682148188
  0
VERTEX
  5
14A
  8
0
 10
145.5722215730884
 20
-50.422763253710549
 30
0.0
 42
-0.3651046212617659
  0
VERTEX
  5
14B
  8
0
 10
142.88456299827541
 20
-45.650866988392082
 30
0.0
 42
0.0014686718313963
  0
VERTEX
  5
14C
  8
0
 10
143.15028023066711
 20
-44.810682542017503
 30
0.0
 42
-0.3650764796361312
  0
VERTEX
  5
14D
  8
0
 10
148.0814997864226
 20
-42.428658159404463
 30
0.0
 42
0.0646269866433121
  0
VERTEX
  5
14E
  8
0
 10
150.48835543894629
 20
-42.242158187231873
 30
0.0
 42
0.2780547079560527
  0
VERTEX
  5
14F
  8
0
 10
151.2445841762065
 20
-41.53933050356293
 30
0.0
 42
0.0073447325918136
  0
VERTEX
  5
150
  8
0
 10
151.46377552291929
 20
-40.731277287730343
 30
0.0
 42
0.2799474061279679
  0
VERTEX
  5
151
  8
0
 10
151.1611488498975
 20
-39.737944396793097
 30
0.0
 42
0.0637571682148184
  0
VERTEX
  5
152
  8
0
 10
149.1977653219401
 20
-38.389498183792227
 30
0.0
 42
-0.3651046212617656
  0
VERTEX
  5
153
  8
0
 10
146.13009586357151
 20
-33.852549134495021
 30
0.0
 42
0.0014686718314105
  0
VERTEX
  5
154
  8
0
 10
146.32644611152131
 20
-32.993501911316393
 30
0.0
 42
-0.3650764796360843
  0
VERTEX
  5
155
  8
0
 10
151.04710034018339
 20
-30.217463345331069
 30
0.0
 42
0.064626986643312
  0
VERTEX
  5
156
  8
0
 10
153.43074589996169
 20
-29.835402856592282
 30
0.0
 42
0.2780547079560536
  0
VERTEX
  5
157
  8
0
 10
154.1271713675302
 20
-29.073274111489798
 30
0.0
 42
0.0073447325918136
  0
VERTEX
  5
158
  8
0
 10
154.27976953442851
 20
-28.25004349644291
 30
0.0
 42
0.2799474061279649
  0
VERTEX
  5
159
  8
0
 10
153.89718397443221
 20
-27.284682722056299
 30
0.0
 42
0.0637571682148187
  0
VERTEX
  5
15A
  8
0
 10
151.8304225584728
 20
-26.100757337282118
 30
0.0
 42
-0.3651046212616271
  0
VERTEX
  5
15B
  8
0
 10
148.40315705066419
 20
-21.828948151387429
 30
0.0
 42
0.001468671831401
  0
VERTEX
  5
15C
  8
0
 10
148.5288336356673
 20
-20.9567549689414
 30
0.0
 42
-0.3650764796361317
  0
VERTEX
  5
15D
  8
0
 10
153.00750736219771
 20
-17.805176298225021
 30
0.0
 42
0.0646269866433123
  0
VERTEX
  5
15E
  8
0
 10
155.35208006130401
 20
-17.230097842437079
 30
0.0
 42
0.278054707956051
  0
VERTEX
  5
15F
  8
0
 10
155.98406766259629
 20
-16.413739876957269
 30
0.0
 42
0.0073447325918136
  0
VERTEX
  5
160
  8
0
 10
156.06905713405621
 20
-15.58081032661574
 30
0.0
 42
0.279947406127968
  0
VERTEX
  5
161
  8
0
 10
155.609058730865
 20
-14.649845985460001
 30
0.0
 42
0.0637571682148178
  0
VERTEX
  5
162
  8
0
 10
153.45267338313531
 20
-13.638320257014261
 30
0.0
 42
-0.3651046212617663
  0
VERTEX
  5
163
  8
0
 10
149.68861971238229
 20
-9.66007911985111
 30
0.0
 42
0.0014686718313963
  0
VERTEX
  5
164
  8
0
 10
149.7427862775007
 20
-8.7805442798686162
 30
0.0
 42
-0.3650764796361306
  0
VERTEX
  5
165
  8
0
 10
153.94967466717841
 20
-5.2743987405015931
 30
0.0
 42
0.0646269866433124
  0
VERTEX
  5
166
  8
0
 10
156.23957176112739
 20
-4.510129369906501
 30
0.0
 42
0.2780547079560514
  0
VERTEX
  5
167
  8
0
 10
156.80291572292751
 20
-3.6449749116200709
 30
0.0
 42
0.0073447325918136
  0
VERTEX
  5
168
  8
0
 10
156.81973090803871
 20
-2.807889434717703
 30
0.0
 42
0.2799474061279662
  0
VERTEX
  5
169
  8
0
 10
156.28538087513149
 20
-1.9175169408849191
 30
0.0
 42
0.0637571682148187
  0
VERTEX
  5
16A
  8
0
 10
154.0537219843421
 20
-1.0851224056004021
 30
0.0
 42
-0.365104621261765
  0
VERTEX
  5
16B
  8
0
 10
149.9779293067983
 20
2.5730761444248489
 30
0.0
 42
0.001468671831401
  0
VERTEX
  5
16C
  8
0
 10
149.960225382478
 20
3.4540994826994829
 30
0.0
 42
-0.3650764796360834
  0
VERTEX
  5
16D
  8
0
 10
153.86733228715741
 20
7.2914790706252841
 30
0.0
 42
0.0646269866433118
  0
VERTEX
  5
16E
  8
0
 10
156.0873148885953
 20
8.2398532694617828
 30
0.0
 42
0.2780547079560534
  0
VERTEX
  5
16F
  8
0
 10
156.5782662497827
 20
9.148046760375383
 30
0.0
 42
0.0073447325918136
  0
VERTEX
  5
170
  8
0
 10
156.52679524626259
 20
9.9837174980991765
 30
0.0
 42
0.2799474061279664
  0
VERTEX
  5
171
  8
0
 10
155.92164959494681
 20
10.82757286256367
 30
0.0
 42
0.0637571682148185
  0
VERTEX
  5
172
  8
0
 10
153.629568482818
 20
11.475296756390071
 30
0.0
 42
-0.3651046212616258
  0
VERTEX
  5
173
  8
0
 10
149.2691605262946
 20
14.789108011485251
 30
0.0
 42
0.0014686718314058
  0
VERTEX
  5
174
  8
0
 10
149.17970392923061
 20
15.665756783095039
 30
0.0
 42
-0.36507647963614
  0
VERTEX
  5
175
  8
0
 10
152.76102819708819
 20
19.808833291546591
 30
0.0
 42
0.0646269866433125
  0
VERTEX
  5
176
  8
0
 10
154.89632268807389
 20
20.935001044802011
 30
0.0
 42
0.278054707956052
  0
VERTEX
  5
177
  8
0
 10
155.3116142483411
 20
21.8801896905021
 30
0.0
 42
0.0073447325918136
  0
VERTEX
  5
178
  8
0
 10
155.19219958722601
 20
22.708884438163729
 30
0.0
 42
0.2799474061279621
  0
VERTEX
  5
179
  8
0
 10
154.52028546196911
 20
23.50060695503576
 30
0.0
 42
0.0637571682148187
  0
VERTEX
  5
17A
  8
0
 10
152.18303555013549
 20
23.95934971175755
 30
0.0
 42
-0.365104621261785
  0
VERTEX
  5
17B
  8
0
 10
147.56703011016529
 20
26.906720804764731
 30
0.0
 42
0.0014686718314058
  0
VERTEX
  5
17C
  8
0
 10
147.40641615925281
 20
27.773161056767851
 30
0.0
 42
-0.3650764796361396
  0
VERTEX
  5
17D
  8
0
 10
150.63812466816299
 20
32.194362995140082
 30
0.0
 42
0.064626986643312
  0
VERTEX
  5
17E
  8
0
 10
152.6745210161576
 20
33.490829842221054
 30
0.0
 42
0.2780547079560528
  0
VERTEX
  5
17F
  8
0
 10
153.01138907868929
 20
34.466723568215677
 30
0.0
 42
0.0073447325918136
  0
VERTEX
  5
180
  8
0
 10
152.82482544484711
 20
35.282927498994468
 30
0.0
 42
0.2799474061279594
  0
VERTEX
  5
181
  8
0
 10
152.0906143232946
 20
36.01724838554928
 30
0.0
 42
0.0637571682148189
  0
VERTEX
  5
182
  8
0
 10
149.7237496243003
 20
36.283957147807691
 30
0.0
 42
-0.3651046212617857
  0
VERTEX
  5
183
  8
0
 10
144.8828654554996
 20
38.845273810382572
 30
0.0
 42
0.0014686718314105
  0
VERTEX
  5
184
  8
0
 10
144.65216301008169
 20
39.695739525857697
 30
0.0
 42
-0.3650764796360843
  0
VERTEX
  5
185
  8
0
 10
147.51274927311229
 20
44.365644524696883
 30
0.0
 42
0.0646269866433119
  0
VERTEX
  5
186
  8
0
 10
149.43669559640179
 20
45.823782692638062
 30
0.0
 42
0.2780547079560578
  0
VERTEX
  5
187
  8
0
 10
149.69289835982121
 20
46.823887087191864
 30
0.0
 42
0.0073447325918136
  0
VERTEX
  5
188
  8
0
 10
149.44042730345399
 20
47.62216849859265
 30
0.0
 42
0.2799474061279641
  0
VERTEX
  5
189
  8
0
 10
148.64880523948361
 20
48.294200970484631
 30
0.0
 42
0.0637571682148181
  0
VERTEX
  5
18A
  8
0
 10
146.26807684739521
 20
48.36710083547068
 30
0.0
 42
-0.3651046212616272
  0
VERTEX
  5
18B
  8
0
 10
141.23452923521879
 20
50.525317927809198
 30
0.0
 42
0.0014686718314058
  0
VERTEX
  5
18C
  8
0
 10
140.93527358200589
 20
51.35414939773738
 30
0.0
 42
-0.3650764796361424
  0
VERTEX
  5
18D
  8
0
 10
143.40570086953949
 20
56.241680009757971
 30
0.0
 42
0.0646269866433123
  0
VERTEX
  5
18E
  8
0
 10
145.20439362277119
 20
57.851785829627602
 30
0.0
 42
0.2780547079560482
  0
VERTEX
  5
18F
  8
0
 10
145.37822609995811
 20
58.869445363000423
 30
0.0
 42
0.0073447325918155
  0
VERTEX
  5
190
  8
0
 10
145.06152777429151
 20
59.644491823937493
 30
0.0
 42
0.2799474061279625
  0
VERTEX
  5
191
  8
0
 10
144.21776288213039
 20
60.249763615943763
 30
0.0
 42
0.0637571682148186
  0
VERTEX
  5
192
  8
0
 10
141.83901415160469
 20
60.128369447083607
 30
0.0
 42
-0.3651046212617672
  0
VERTEX
  5
193
  8
0
 10
136.64630052493271
 20
61.869124390521002
 30
0.0
 42
0.001468671831401
  0
VERTEX
  5
194
  8
0
 10
136.28048316092509
 20
62.670805878214168
 30
0.0
 42
-0.3650764796361418
  0
VERTEX
  5
195
  8
0
 10
138.3443111869552
 20
67.743436393578122
 30
0.0
 42
0.0646269866433117
  0
VERTEX
  5
196
  8
0
 10
140.0057803666196
 20
69.494794876793705
 30
0.0
 42
0.2780547079560572
  0
VERTEX
  5
197
  8
0
 10
140.0960857311189
 20
70.52323719269296
 30
0.0
 42
0.0073447325918155
  0
VERTEX
  5
198
  8
0
 10
139.71726771125839
 20
71.269890896842455
 30
0.0
 42
0.2799474061279716
  0
VERTEX
  5
199
  8
0
 10
138.8269751070527
 20
71.804374025050009
 30
0.0
 42
0.063757168214818
  0
VERTEX
  5
19A
  8
0
 10
136.46603621842539
 20
71.489493680508801
 30
0.0
 42
-0.3651046212617854
  0
VERTEX
  5
19B
  8
0
 10
131.14871322970669
 20
72.801202038099206
 30
0.0
 42
0.0014686718314058
  0
VERTEX
  5
19C
  8
0
 10
130.7187686091049
 20
73.570398485527335
 30
0.0
 42
-0.3650764796360841
  0
VERTEX
  5
19D
  8
0
 10
132.3622629386264
 20
78.794371385079302
 30
0.0
 42
0.0646269866433129
  0
VERTEX
  5
19E
  8
0
 10
133.875451741456
 20
80.675327529888875
 30
0.0
 42
0.2780547079560561
  0
VERTEX
  5
19F
  8
0
 10
133.88162902596611
 20
81.707708514383285
 30
0.0
 42
0.0073447325918136
  0
VERTEX
  5
1A0
  8
0
 10
133.44321228333351
 20
82.421000604533262
 30
0.0
 42
0.279947406127969
  0
VERTEX
  5
1A1
  8
0
 10
132.5123167174761
 20
82.881138171907423
 30
0.0
 42
0.0637571682148187
  0
VERTEX
  5
1A2
  8
0
 10
130.1848993295236
 20
82.374867128426445
 30
0.0
 42
-0.3651046212616247
  0
VERTEX
  5
1A3
  8
0
 10
124.7783528859532
 20
83.248799697464705
 30
0.0
 42
0.0014686718314058
  0
VERTEX
  5
1A4
  8
0
 10
124.28714221927071
 20
83.980392229179174
 30
0.0
 42
-0.3650764796361401
  0
VERTEX
  5
1A5
  8
0
 10
125.4993656686771
 20
89.320942835168978
 30
0.0
 42
0.0646269866433124
  0
VERTEX
  5
1A6
  8
0
 10
126.85420407284781
 20
91.318979188764743
 30
0.0
 42
0.2780547079560484
  0
VERTEX
  5
1A7
  8
0
 10
126.7762121685596
 20
92.348428516733335
 30
0.0
 42
0.0073447325918136
  0
VERTEX
  5
1A8
  8
0
 10
126.2811142942433
 20
93.023612151708789
 30
0.0
 42
0.2799474061279672
  0
VERTEX
  5
1A9
  8
0
 10
125.315810723138
 20
93.406342018655991
 30
0.0
 42
0.0637571682148189
  0
VERTEX
  5
1AA
  8
0
 10
123.0374034145803
 20
92.712049426500812
 30
0.0
 42
-0.3651046212617655
  0
VERTEX
  5
1AB
  8
0
 10
117.57761319072
 20
93.142390329932084
 30
0.0
 42
0.001468671831401
  0
VERTEX
  5
1AC
  8
0
 10
117.0284054039019
 20
93.831510318335887
 30
0.0
 42
-0.3650764796361499
  0
VERTEX
  5
1AD
  8
0
 10
117.8012908261407
 20
99.253098147608867
 30
0.0
 42
0.0646269866433126
  0
VERTEX
  5
1AE
  8
0
 10
118.9887626056052
 20
101.3549181077104
 30
0.0
 42
0.2780547079560491
  0
VERTEX
  5
1AF
  8
0
 10
118.8271205357739
 20
102.3745849637228
 30
0.0
 42
0.0073447325918155
  0
VERTEX
  5
1B0
  8
0
 10
118.2786363244421
 20
103.0071669078304
 30
0.0
 42
0.2799474061279715
  0
VERTEX
  5
1B1
  8
0
 10
117.28534868409091
 20
103.3099420702321
 30
0.0
 42
0.0637571682148187
  0
VERTEX
  5
1B2
  8
0
 10
115.0711138796556
 20
102.43224833205331
 30
0.0
 42
-0.3651046212617771
  0
VERTEX
  5
1B3
  8
0
 10
109.5944138786444
 20
102.416133722165
 30
0.0
 42
0.001468671831401
  0
VERTEX
  5
1B4
  8
0
 10
108.9908638588972
 20
103.05819518743441
 30
0.0
 42
-0.3650764796360854
  0
VERTEX
  5
1B5
  8
0
 10
109.31926782900121
 20
108.5247404674849
 30
0.0
 42
0.0646269866433115
  0
VERTEX
  5
1B6
  8
0
 10
110.3314705549863
 20
110.71635676903369
 30
0.0
 42
0.2780547079560554
  0
VERTEX
  5
1B7
  8
0
 10
110.0872540209176
 20
111.7194554383962
 30
0.0
 42
0.0073447325918136
  0
VERTEX
  5
1B8
  8
0
 10
109.4890335445032
 20
112.30522596316661
 30
0.0
 42
0.2799474061279705
  0
VERTEX
  5
1B9
  8
0
 10
108.4743720002715
 20
112.52603150227149
 30
0.0
 42
0.0637571682148184
  0
VERTEX
  5
1BA
  8
0
 10
106.33904506725921
 20
111.4707775250873
 30
0.0
 42
-0.3651046212616262
  0
VERTEX
  5
1BB
  8
0
 10
100.8818818240139
 20
111.0083146419482
 30
0.0
 42
0.0014686718314058
  0
VERTEX
  5
1BC
  8
0
 10
100.2280060971396
 20
111.5990447709645
 30
0.0
 42
-0.365076479636141
  0
VERTEX
  5
1BD
  8
0
 10
100.1097431408694
 20
117.0741685448716
 30
0.0
 42
0.0646269866433119
  0
VERTEX
  5
1BE
  8
0
 10
100.9399407712353
 20
119.34099634297201
 30
0.0
 42
0.2780547079560578
  0
VERTEX
  5
1BF
  8
0
 10
100.61477499367049
 20
120.32085136953989
 30
0.0
 42
0.0073447325918155
  0
VERTEX
  5
1C0
  8
0
 10
99.970799310744681
 20
120.855912268776
 30
0.0
 42
0.2799474061279698
  0
VERTEX
  5
1C1
  8
0
 10
98.941516267802086
 20
120.9932787601516
 30
0.0
 42
0.0637571682148187
  0
VERTEX
  5
1C2
  8
0
 10
96.899307454647754
 20
119.7674870850756
 30
0.0
 42
-0.3651046212617656
  0
VERTEX
  5
1C3
  8
0
 10
91.497997490180055
 20
118.8617535428743
 30
0.0
 42
0.001468671831401
  0
VERTEX
  5
1C4
  8
0
 10
90.798147491261943
 20
119.39722112409081
 30
0.0
 42
-0.3650764796361408
  0
VERTEX
  5
1C5
  8
0
 10
90.23400462908009
 20
124.8444873464704
 30
0.0
 42
0.0646269866433123
  0
VERTEX
  5
1C6
  8
0
 10
90.876672335569694
 20
127.1714412761264
 30
0.0
 42
0.2780547079560555
  0
VERTEX
  5
1C7
  8
0
 10
90.472721239109887
 20
128.12153188636239
 30
0.0
 42
0.0073447325918136
  0
VERTEX
  5
1C8
  8
0
 10
89.787275901593958
 20
128.60232241805869
 30
0.0
 42
0.279947406127957
  0
VERTEX
  5
1C9
  8
0
 10
88.750221068771509
 20
128.6553357103688
 30
0.0
 42
0.0637571682148186
  0
VERTEX
  5
1CA
  8
0
 10
86.814720938185957
 20
127.26716377875719
 30
0.0
 42
-0.3651046212617659
  0
VERTEX
  5
1CB
  8
0
 10
81.505209079157666
 20
125.9241870847805
 30
0.0
 42
0.0014686718314105
  0
VERTEX
  5
1CC
  8
0
 10
80.764042194469027
 20
126.40082866979159
 30
0.0
 42
-0.3650764796360848
  0
VERTEX
  5
1CD
  8
0
 10
79.757773704047025
 20
131.78398668266911
 30
0.0
 42
0.064626986643312
  0
VERTEX
  5
1CE
  8
0
 10
80.208634639106336
 20
134.15558124939909
 30
0.0
 42
0.2780547079560542
  0
VERTEX
  5
1CF
  8
0
 10
79.728586451651267
 20
135.06958474704589
 30
0.0
 42
0.0073447325918136
  0
VERTEX
  5
1D0
  8
0
 10
79.006232985175885
 20
135.4929053295389
 30
0.0
 42
0.2799474061279658
  0
VERTEX
  5
1D1
  8
0
 10
77.968307791283976
 20
135.46121262806969
 30
0.0
 42
0.063757168214819
  0
VERTEX
  5
1D2
  8
0
 10
76.152396777301234
 20
133.91989849509511
 30
0.0
 42
-0.3651046212616259
  0
VERTEX
  5
1D3
  8
0
 10
70.970016949128393
 20
132.148615937665
 30
0.0
 42
0.0014686718313963
  0
VERTEX
  5
1D4
  8
0
 10
70.19246552200228
 20
132.56325955536289
 30
0.0
 42
-0.3650764796361322
  0
VERTEX
  5
1D5
  8
0
 10
68.750767954119922
 20
137.8464853303218
 30
0.0
 42
0.0646269866433123
  0
VERTEX
  5
1D6
  8
0
 10
69.006821712612961
 20
140.24693796356991
 30
0.0
 42
0.2780547079560547
  0
VERTEX
  5
1D7
  8
0
 10
68.453871075647768
 20
141.1187718061507
 30
0.0
 42
0.0073447325918155
  0
VERTEX
  5
1D8
  8
0
 10
67.699416623352391
 20
141.48180531080681
 30
0.0
 42
0.2799474061279695
  0
VERTEX
  5
1D9
  8
0
 10
66.667528289310766
 20
141.3656175252577
 30
0.0
 42
0.0637571682148187
  0
VERTEX
  5
1DA
  8
0
 10
64.98329098012465
 20
139.68141838217619
 30
0.0
 42
-0.3651046212617659
  0
VERTEX
  5
1DB
  8
0
 10
59.962531065527351
 20
137.49361755447291
 30
0.0
 42
0.0014686718313963
  0
VERTEX
  5
1DC
  8
0
 10
59.153769572427571
 20
137.84350381999189
 30
0.0
 42
-0.3650764796361301
  0
VERTEX
  5
1DD
  8
0
 10
57.286237186536432
 20
142.99163836117049
 30
0.0
 42
0.064626986643312
  0
VERTEX
  5
1DE
  8
0
 10
57.345779772946337
 20
145.4049744447091
 30
0.0
 42
0.2780547079560554
  0
VERTEX
  5
1DF
  8
0
 10
56.723606481729547
 20
146.228836721844
 30
0.0
 42
0.0073447325918136
  0
VERTEX
  5
1E0
  8
0
 10
55.942071813517977
 20
146.52916722058609
 30
0.0
 42
0.2799474061279649
  0
VERTEX
  5
1E1
  8
0
 10
54.923087385940129
 20
146.32925756150021
 30
0.0
 42
0.0637571682148191
  0
VERTEX
  5
1E2
  8
0
 10
53.381732102963689
 20
144.51338147573571
 30
0.0
 42
-0.3651046212617669
  0
VERTEX
  5
1E3
  8
0
 10
48.556004430808422
 20
141.9236218313051
 30
0.0
 42
0.0014686718314058
  0
VERTEX
  5
1E4
  8
0
 10
47.721415046032831
 20
142.20642230927641
 30
0.0
 42
-0.3650764796360847
  0
VERTEX
  5
1E5
  8
0
 10
45.440475962040452
 20
147.1852056306852
 30
0.0
 42
0.0646269866433123
  0
VERTEX
  5
1E6
  8
0
 10
45.303111130278481
 20
149.5953648110509
 30
0.0
 42
0.2780547079560529
  0
VERTEX
  5
1E7
  8
0
 10
44.61585564541182
 20
150.36577285521329
 30
0.0
 42
0.0073447325918136
  0
VERTEX
  5
1E8
  8
0
 10
43.81244174555686
 20
150.6014016981232
 30
0.0
 42
0.2799474061279645
  0
VERTEX
  5
1E9
  8
0
 10
42.813142397687699
 20
150.31910053129911
 30
0.0
 42
0.0637571682148186
  0
VERTEX
  5
1EA
  8
0
 10
41.424926606023398
 20
148.38363185860379
 30
0.0
 42
-0.3651046212616267
  0
VERTEX
  5
1EB
  8
0
 10
36.82634559778144
 20
145.40914782059909
 30
0.0
 42
0.0014686718314058
  0
VERTEX
  5
1EC
  8
0
 10
35.971482375987243
 20
145.62298052050039
 30
0.0
 42
-0.3650764796361306
  0
VERTEX
  5
1ED
  8
0
 10
33.292315867167829
 20
150.39927964057739
 30
0.0
 42
0.064626986643312
  0
VERTEX
  5
1EE
  8
0
 10
32.958957757525774
 20
152.790222706073
 30
0.0
 42
0.2780547079560609
  0
VERTEX
  5
1EF
  8
0
 10
32.211193650871849
 20
153.5020495788375
 30
0.0
 42
0.0073447325918136
  0
VERTEX
  5
1F0
  8
0
 10
31.391247106323071
 20
153.6714086948416
 30
0.0
 42
0.2799474061279616
  0
VERTEX
  5
1F1
  8
0
 10
30.41828301044988
 20
153.30859468796811
 30
0.0
 42
0.0637571682148184
  0
VERTEX
  5
1F2
  8
0
 10
29.19244505715179
 20
151.26641365302899
 30
0.0
 42
-0.3651046212617667
  0
VERTEX
  5
1F3
  8
0
 10
24.851613510716351
 20
147.92699992196819
 30
0.0
 42
0.0014686718314058
  0
VERTEX
  5
1F4
  8
0
 10
23.982165425605789
 20
148.07044182246119
 30
0.0
 42
-0.3650764796361402
  0
VERTEX
  5
1F5
  8
0
 10
20.9226009030447
 20
152.612471258596
 30
0.0
 42
0.0646269866433121
  0
VERTEX
  5
1F6
  8
0
 10
20.395467958741989
 20
154.96828687759859
 30
0.0
 42
0.2780547079560517
  0
VERTEX
  5
1F7
  8
0
 10
19.592171477058191
 20
155.61679548856989
 30
0.0
 42
0.0073447325918136
  0
VERTEX
  5
1F8
  8
0
 10
18.761148896787901
 20
155.71875782069361
 30
0.0
 42
0.2799474061279646
  0
VERTEX
  5
1F9
  8
0
 10
17.820994968440932
 20
155.27784544112629
 30
0.0
 42
0.0637571682148187
  0
VERTEX
  5
1FA
  8
0
 10
16.765692602839209
 20
153.1425424217947
 30
0.0
 42
-0.3651046212617763
  0
VERTEX
  5
1FB
  8
0
 10
12.71149803596699
 20
149.46042224509341
 30
0.0
 42
0.001468671831401
  0
VERTEX
  5
1FC
  8
0
 10
11.83325112109468
 20
149.53251876399699
 30
0.0
 42
-0.3650764796360843
  0
VERTEX
  5
1FD
  8
0
 10
8.4136494818979521
 20
153.81005205967401
 30
0.0
 42
0.064626986643312
  0
VERTEX
  5
1FE
  8
0
 10
7.6962496857081319
 20
156.11506266792131
 30
0.0
 42
0.2780547079560549
  0
VERTEX
  5
1FF
  8
0
 10
6.8427666345454501
 20
156.69593729928991
 30
0.0
 42
0.0073447325918136
  0
VERTEX
  5
200
  8
0
 10
6.0061983367162846
 20
156.72982430503549
 30
0.0
 42
0.2799474061279618
  0
VERTEX
  5
201
  8
0
 10
5.1051111451742228
 20
156.21374775191501
 30
0.0
 42
0.0637571682148185
  0
VERTEX
  5
202
  8
0
 10
4.2273672303993211
 20
153.9995328374844
 30
0.0
 42
-0.3651046212616262
  0
VERTEX
  5
203
  8
0
 10
0.4867896390402037
 20
149.99921011741159
 30
0.0
 42
0.001468671831401
  0
VERTEX
  5
204
  8
0
 10
-0.3944115172765702
 20
149.99948146428719
 30
0.0
 42
-0.3650764796361406
  0
VERTEX
  5
205
  8
0
 10
-4.1512933883963612
 20
153.9840523411672
 30
0.0
 42
0.064626986643312
  0
VERTEX
  5
206
  8
0
 10
-5.0541858591923061
 20
156.22291847336129
 30
0.0
 42
0.2780547079560548
  0
VERTEX
  5
207
  8
0
 10
-5.952175690943152
 20
156.732293500293
 30
0.0
 42
0.0073447325918155
  0
VERTEX
  5
208
  8
0
 10
-6.7887224823331902
 20
156.69787966722819
 30
0.0
 42
0.2799474061279608
  0
VERTEX
  5
209
  8
0
 10
-7.6447463504795667
 20
156.11007334486879
 30
0.0
 42
0.063757168214818
  0
VERTEX
  5
20A
  8
0
 10
-8.3390905734923741
 20
153.83168177027511
 30
0.0
 42
-0.365104621261758
  0
VERTEX
  5
20B
  8
0
 10
-11.741158262623911
 20
149.53977799452559
 30
0.0
 42
0.001468671831401
  0
VERTEX
  5
20C
  8
0
 10
-12.619449412074299
 20
149.46822236360509
 30
0.0
 42
-0.36507647963615
  0
VERTEX
  5
20D
  8
0
 10
-16.688610086106021
 20
153.1333141599103
 30
0.0
 42
0.0646269866433125
  0
VERTEX
  5
20E
  8
0
 10
-17.770986631081719
 20
155.29113653132839
 30
0.0
 42
0.2780547079560538
  0
VERTEX
  5
20F
  8
0
 10
-18.707507269248321
 20
155.72562214705991
 30
0.0
 42
0.0073447325918136
  0
VERTEX
  5
210
  8
0
 10
-19.53846547332304
 20
155.62313649356591
 30
0.0
 42
0.279947406127967
  0
VERTEX
  5
211
  8
0
 10
-20.343729320465219
 20
154.9675121560617
 30
0.0
 42
0.0637571682148184
  0
VERTEX
  5
212
  8
0
 10
-20.850053105470518
 20
152.64010624132561
 30
0.0
 42
-0.3651046212617666
  0
VERTEX
  5
213
  8
0
 10
-23.890970693203169
 20
148.08518332141301
 30
0.0
 42
0.0014686718314058
  0
VERTEX
  5
214
  8
0
 10
-24.760506953098531
 20
147.9422769036139
 30
0.0
 42
-0.3650764796360841
  0
VERTEX
  5
215
  8
0
 10
-29.114866837119589
 20
151.26349903813761
 30
0.0
 42
0.0646269866433124
  0
VERTEX
  5
216
  8
0
 10
-30.369524418947769
 20
153.32591769691351
 30
0.0
 42
0.2780547079560516
  0
VERTEX
  5
217
  8
0
 10
-31.338343473198162
 20
153.68262247135721
 30
0.0
 42
0.0073447325918136
  0
VERTEX
  5
218
  8
0
 10
-32.158183200207901
 20
153.51274702254901
 30
0.0
 42
0.2799474061279653
  0
VERTEX
  5
219
  8
0
 10
-32.907328128302332
 20
152.7936677416958
 30
0.0
 42
0.0637571682148184
  0
VERTEX
  5
21A
  8
0
 10
-33.22226197404845
 20
150.43273598918489
 30
0.0
 42
-0.3651046212616263
  0
VERTEX
  5
21B
  8
0
 10
-35.881792655549837
 20
145.64510618563261
 30
0.0
 42
0.0014686718314058
  0
VERTEX
  5
21C
  8
0
 10
-36.736787405544113
 20
145.4317999995869
 30
0.0
 42
-0.3650764796361407
  0
VERTEX
  5
21D
  8
0
 10
-41.347368952946987
 20
148.38705028698669
 30
0.0
 42
0.0646269866433123
  0
VERTEX
  5
21E
  8
0
 10
-42.765958032424521
 20
150.34034017722141
 30
0.0
 42
0.2780547079560521
  0
VERTEX
  5
21F
  8
0
 10
-43.760628171796583
 20
150.6168902989555
 30
0.0
 42
0.0073447325918136
  0
VERTEX
  5
220
  8
0
 10
-44.56389352362212
 20
150.38075554791749
 30
0.0
 42
0.2799474061279684
  0
VERTEX
  5
221
  8
0
 10
-45.251934096772523
 20
149.60300667768959
 30
0.0
 42
0.0637571682148185
  0
VERTEX
  5
222
  8
0
 10
-45.373382170476461
 20
147.2242606986905
 30
0.0
 42
-0.3651046212617663
  0
VERTEX
  5
223
  8
0
 10
-47.633827207856768
 20
142.23578489793641
 30
0.0
 42
0.0014686718314058
  0
VERTEX
  5
224
  8
0
 10
-48.468590598950037
 20
141.9534984611206
 30
0.0
 42
-0.3650764796361314
  0
VERTEX
  5
225
  8
0
 10
-53.304711150228258
 20
144.523110198316
 30
0.0
 42
0.0646269866433121
  0
VERTEX
  5
226
  8
0
 10
-54.877791251081931
 20
146.35427249806011
 30
0.0
 42
0.2780547079560533
  0
VERTEX
  5
227
  8
0
 10
-55.891693109907131
 20
146.54882757165211
 30
0.0
 42
0.0073447325918118
  0
VERTEX
  5
228
  8
0
 10
-56.673038488161531
 20
146.24800495619289
 30
0.0
 42
0.2799474061279595
  0
VERTEX
  5
229
  8
0
 10
-57.295395909872333
 20
145.41676228700209
 30
0.0
 42
0.0637571682148188
  0
VERTEX
  5
22A
  8
0
 10
-57.222549994641099
 20
143.03603224353961
 30
0.0
 42
-0.3651046212617654
  0
VERTEX
  5
22B
  8
0
 10
-59.068866499121768
 20
137.87990792899791
 30
0.0
 42
0.001468671831401
  0
VERTEX
  5
22C
  8
0
 10
-59.877843318675048
 20
137.5305198110739
 30
0.0
 42
-0.3650764796360836
  0
VERTEX
  5
22D
  8
0
 10
-64.907319289463018
 20
139.69739265591031
 30
0.0
 42
0.0646269866433125
  0
VERTEX
  5
22E
  8
0
 10
-66.624421823161626
 20
141.39424128217951
 30
0.0
 42
0.2780547079560521
  0
VERTEX
  5
22F
  8
0
 10
-67.650808051851513
 20
141.50550657571381
 30
0.0
 42
0.0073447325918136
  0
VERTEX
  5
230
  8
0
 10
-68.405033731955399
 20
141.14199802070721
 30
0.0
 42
0.2799474061279699
  0
VERTEX
  5
231
  8
0
 10
-68.957566316266835
 20
140.26279333537161
 30
0.0
 42
0.0637571682148182
  0
VERTEX
  5
232
  8
0
 10
-68.690911189647579
 20
137.89592259309211
 30
0.0
 42
-0.3651046212616265
  0
VERTEX
  5
233
  8
0
 10
-70.110812229510387
 20
132.6064629213765
 30
0.0
 42
0.0014686718314058
  0
VERTEX
  5
234
  8
0
 10
-70.888618870261453
 20
132.19229824262379
 30
0.0
 42
-0.3650764796361493
  0
VERTEX
  5
235
  8
0
 10
-76.077979927780291
 20
133.9420120138268
 30
0.0
 42
0.0646269866433126
  0
VERTEX
  5
236
  8
0
 10
-77.927677860264026
 20
135.4932547189737
 30
0.0
 42
0.278054707956049
  0
VERTEX
  5
237
  8
0
 10
-78.959718027808492
 20
135.52048978027941
 30
0.0
 42
0.0073447325918136
  0
VERTEX
  5
238
  8
0
 10
-79.681804762299265
 20
135.09671437518421
 30
0.0
 42
0.2799474061279652
  0
VERTEX
  5
239
  8
0
 10
-80.160835496024177
 20
134.1753986358261
 30
0.0
 42
0.0637571682148188
  0
VERTEX
  5
23A
  8
0
 10
-79.702145703889556
 20
131.83813832901339
 30
0.0
 42
-0.3651046212617656
  0
VERTEX
  5
23B
  8
0
 10
-80.686182071984817
 20
126.45054378153741
 30
0.0
 42
0.0014686718313963
  0
VERTEX
  5
23C
  8
0
 10
-81.427642359066269
 20
125.9743587395625
 30
0.0
 42
-0.3650764796361305
  0
VERTEX
  5
23D
  8
0
 10
-86.742354161661282
 20
127.2952693806678
 30
0.0
 42
0.0646269866433118
  0
VERTEX
  5
23E
  8
0
 10
-88.712338058368147
 20
128.69058290042659
 30
0.0
 42
0.278054707956059
  0
VERTEX
  5
23F
  8
0
 10
-89.743164107726855
 20
128.63360648466431
 30
0.0
 42
0.0073447325918155
  0
VERTEX
  5
240
  8
0
 10
-90.428306528522356
 20
128.15238438488319
 30
0.0
 42
0.2799474061279602
  0
VERTEX
  5
241
  8
0
 10
-90.830647541162364
 20
127.1950887957418
 30
0.0
 42
0.0637571682148187
  0
VERTEX
  5
242
  8
0
 10
-90.182975588400524
 20
124.9029930061168
 30
0.0
 42
-0.3651046212617652
  0
VERTEX
  5
243
  8
0
 10
-90.724598685051404
 20
119.4531171357046
 30
0.0
 42
0.0014686718314058
  0
VERTEX
  5
244
  8
0
 10
-91.424778322587201
 20
118.9180806633953
 30
0.0
 42
-0.3650764796360835
  0
VERTEX
  5
245
  8
0
 10
-96.829472340077544
 20
119.8013977320215
 30
0.0
 42
0.0646269866433124
  0
VERTEX
  5
246
  8
0
 10
-98.9066322831994
 20
121.0314964851288
 30
0.0
 42
0.2780547079560518
  0
VERTEX
  5
247
  8
0
 10
-99.929384237088144
 20
120.8906877609448
 30
0.0
 42
0.0073447325918136
  0
VERTEX
  5
248
  8
0
 10
-100.57302283441859
 20
120.355221420156
 30
0.0
 42
0.2799474061279705
  0
VERTEX
  5
249
  8
0
 10
-100.89599661291609
 20
119.3683166254342
 30
0.0
 42
0.0637571682148186
  0
VERTEX
  5
24A
  8
0
 10
-100.0636526495143
 20
117.1366388723077
 30
0.0
 42
-0.3651046212616259
  0
VERTEX
  5
24B
  8
0
 10
-100.1592580623728
 20
111.6607497037123
 30
0.0
 42
0.0014686718314058
  0
VERTEX
  5
24C
  8
0
 10
-100.8134974703967
 20
111.0704223805164
 30
0.0
 42
-0.3650764796361416
  0
VERTEX
  5
24D
  8
0
 10
-106.272206355809
 20
111.5102675473081
 30
0.0
 42
0.0646269866433119
  0
VERTEX
  5
24E
  8
0
 10
-108.4427191886316
 20
112.5669654295138
 30
0.0
 42
0.2780547079560576
  0
VERTEX
  5
24F
  8
0
 10
-109.45059080153951
 20
112.3432614557358
 30
0.0
 42
0.0073447325918136
  0
VERTEX
  5
250
  8
0
 10
-110.04844226673249
 20
111.7571143140915
 30
0.0
 42
0.2799474061279676
  0
VERTEX
  5
251
  8
0
 10
-110.28989947387861
 20
110.7471680023703
 30
0.0
 42
0.0637571682148182
  0
VERTEX
  5
252
  8
0
 10
-109.27842261158629
 20
108.5907597329886
 30
0.0
 42
-0.3651046212617772
  0
VERTEX
  5
253
  8
0
 10
-108.9273741024063
 20
103.1252984051654
 30
0.0
 42
0.001468671831401
  0
VERTEX
  5
254
  8
0
 10
-109.5313194255977
 20
102.4836087620244
 30
0.0
 42
-0.3650764796361395
  0
VERTEX
  5
255
  8
0
 10
-115.0077163719223
 20
102.4770549299663
 30
0.0
 42
0.0646269866433126
  0
VERTEX
  5
256
  8
0
 10
-117.25713768965279
 20
103.3533197912073
 30
0.0
 42
0.2780547079560581
  0
VERTEX
  5
257
  8
0
 10
-118.243421742283
 20
103.0482092808722
 30
0.0
 42
0.0073447325918136
  0
VERTEX
  5
258
  8
0
 10
-118.7915074724763
 20
102.4152820508926
 30
0.0
 42
0.279947406127963
  0
VERTEX
  5
259
  8
0
 10
-118.949841250395
 20
101.3890152482473
 30
0.0
 42
0.0637571682148189
  0
VERTEX
  5
25A
  8
0
 10
-117.7659627008487
 20
99.322227003860576
 30
0.0
 42
-0.3651046212617652
  0
VERTEX
  5
25B
  8
0
 10
-116.9705964395385
 20
93.903565260210598
 30
0.0
 42
0.001468671831401
  0
VERTEX
  5
25C
  8
0
 10
-117.52022852141749
 20
93.214783635825782
 30
0.0
 42
-0.3650764796360834
  0
VERTEX
  5
25D
  8
0
 10
-122.97786901051811
 20
92.761874419589617
 30
0.0
 42
0.0646269866433125
  0
VERTEX
  5
25E
  8
0
 10
-125.2912292854152
 20
93.451874861787985
 30
0.0
 42
0.2780547079560521
  0
VERTEX
  5
25F
  8
0
 10
-126.2493622201229
 20
93.067388275002401
 30
0.0
 42
0.0073447325918118
  0
VERTEX
  5
260
  8
0
 10
-126.7440347952098
 20
92.391892982977296
 30
0.0
 42
0.2799474061279727
  0
VERTEX
  5
261
  8
0
 10
-126.8181914587324
 20
91.356135325657206
 30
0.0
 42
0.0637571682148181
  0
VERTEX
  5
262
  8
0
 10
-125.4697897383531
 20
89.392721241035943
 30
0.0
 42
-0.3651046212616264
  0
VERTEX
  5
263
  8
0
 10
-124.2353987561545
 20
84.056919381448623
 30
0.0
 42
0.0014686718314105
  0
VERTEX
  5
264
  8
0
 10
-124.727059885899
 20
83.325629503888877
 30
0.0
 42
-0.3650764796361506
  0
VERTEX
  5
265
  8
0
 10
-130.1296242207691
 20
82.429378939582492
 30
0.0
 42
0.0646269866433119
  0
VERTEX
  5
266
  8
0
 10
-132.49152842188099
 20
82.928523123637333
 30
0.0
 42
0.2780547079560565
  0
VERTEX
  5
267
  8
0
 10
-133.4151340220665
 20
82.467219155200524
 30
0.0
 42
0.0073447325918118
  0
VERTEX
  5
268
  8
0
 10
-133.8531014776751
 20
81.753651110849461
 30
0.0
 42
0.2799474061279634
  0
VERTEX
  5
269
  8
0
 10
-133.8425875264407
 20
80.715295395176184
 30
0.0
 42
0.0637571682148186
  0
VERTEX
  5
26A
  8
0
 10
-132.3386360262071
 20
78.868321667112951
 30
0.0
 42
-0.3651046212617762
  0
VERTEX
  5
26B
  8
0
 10
-130.6734349914484
 20
73.650888572614605
 30
0.0
 42
0.001468671831401
  0
VERTEX
  5
26C
  8
0
 10
-131.10385324535699
 20
72.881957055363699
 30
0.0
 42
-0.3650764796361312
  0
VERTEX
  5
26D
  8
0
 10
-136.41538825170761
 20
71.548329542622668
 30
0.0
 42
0.0646269866433123
  0
VERTEX
  5
26E
  8
0
 10
-138.81011829626269
 20
71.853295746342141
 30
0.0
 42
0.2780547079560564
  0
VERTEX
  5
26F
  8
0
 10
-139.693050119041
 20
71.318244298054225
 30
0.0
 42
0.0073447325918136
  0
VERTEX
  5
270
  8
0
 10
-140.07139785401361
 20
70.571352178981954
 30
0.0
 42
0.2799474061279645
  0
VERTEX
  5
271
  8
0
 10
-139.97628325663311
 20
69.537308490926591
 30
0.0
 42
0.0637571682148185
  0
VERTEX
  5
272
  8
0
 10
-138.3267905256445
 20
67.819066424852494
 30
0.0
 42
-0.3651046212617663
  0
VERTEX
  5
273
  8
0
 10
-136.2418610764723
 20
62.754723251873301
 30
0.0
 42
0.0014686718314058
  0
VERTEX
  5
274
  8
0
 10
-136.60817209208051
 20
61.953267207311242
 30
0.0
 42
-0.3650764796360838
  0
VERTEX
  5
275
  8
0
 10
-141.79333038078579
 20
60.191137817200193
 30
0.0
 42
0.0646269866433123
  0
VERTEX
  5
276
  8
0
 10
-144.20494973544021
 20
60.299896540814409
 30
0.0
 42
0.2780547079560513
  0
VERTEX
  5
277
  8
0
 10
-145.0413320152042
 20
59.694658291786482
 30
0.0
 42
0.0073447325918136
  0
VERTEX
  5
278
  8
0
 10
-145.3575421877876
 20
58.919412541816897
 30
0.0
 42
0.2799474061279703
  0
VERTEX
  5
279
  8
0
 10
-145.1784599162138
 20
57.89656227151827
 30
0.0
 42
0.0637571682148184
  0
VERTEX
  5
27A
  8
0
 10
-143.39440305644791
 20
56.318486484893022
 30
0.0
 42
-0.3651046212616269
  0
VERTEX
  5
27B
  8
0
 10
-140.90362005435671
 20
51.440935601693248
 30
0.0
 42
0.0014686718313963
  0
VERTEX
  5
27C
  8
0
 10
-141.2033860922925
 20
50.612288587565111
 30
0.0
 42
-0.3650764796361412
  0
VERTEX
  5
27D
  8
0
 10
-146.22766129043271
 20
48.433384000442899
 30
0.0
 42
0.0646269866433123
  0
VERTEX
  5
27E
  8
0
 10
-148.64012102627041
 20
48.345211472590151
 30
0.0
 42
0.2780547079560541
  0
VERTEX
  5
27F
  8
0
 10
-149.4243877769415
 20
47.673814183512192
 30
0.0
 42
0.0073447325918155
  0
VERTEX
  5
280
  8
0
 10
-149.6763560606083
 20
46.875373935204777
 30
0.0
 42
0.2799474061279646
  0
VERTEX
  5
281
  8
0
 10
-149.4144978778119
 20
45.870523982453349
 30
0.0
 42
0.0637571682148187
  0
VERTEX
  5
282
  8
0
 10
-147.50774949332171
 20
44.443116309272739
 30
0.0
 42
-0.3651046212617761
  0
VERTEX
  5
283
  8
0
 10
-144.62768868824131
 20
39.784817012236637
 30
0.0
 42
0.001468671831401
  0
VERTEX
  5
284
  8
0
 10
-144.85891485497939
 20
38.934493537707802
 30
0.0
 42
-0.3650764796361414
  0
VERTEX
  5
285
  8
0
 10
-149.68887124005761
 20
36.353314004108597
 30
0.0
 42
0.064626986643312
  0
VERTEX
  5
286
  8
0
 10
-152.08611683556441
 20
36.068796998414292
 30
0.0
 42
0.278054707956057
  0
VERTEX
  5
287
  8
0
 10
-152.81304889131201
 20
35.335708707472371
 30
0.0
 42
0.0073447325918136
  0
VERTEX
  5
288
  8
0
 10
-152.99909847870609
 20
34.519387448946269
 30
0.0
 42
0.2799474061279645
  0
VERTEX
  5
289
  8
0
 10
-152.65620700769011
 20
33.539224924389003
 30
0.0
 42
0.0637571682148191
  0
VERTEX
  5
28A
  8
0
 10
-150.63945619438309
 20
32.271984527212361
 30
0.0
 42
-0.3651046212617654
  0
VERTEX
  5
28B
  8
0
 10
-147.3892839157941
 20
27.863937029598741
 30
0.0
 42
0.0014686718314058
  0
VERTEX
  5
28C
  8
0
 10
-147.55043143934529
 20
26.997595857095451
 30
0.0
 42
-0.3650764796360845
  0
VERTEX
  5
28D
  8
0
 10
-152.1539264485053
 20
24.031318700951491
 30
0.0
 42
0.0646269866433121
  0
VERTEX
  5
28E
  8
0
 10
-154.52000462976079
 20
23.55235063114651
 30
0.0
 42
0.2780547079560575
  0
VERTEX
  5
28F
  8
0
 10
-155.18476437768919
 20
22.76244991996581
 30
0.0
 42
0.0073447325918155
  0
VERTEX
  5
290
  8
0
 10
-155.30365713950249
 20
21.933680134512951
 30
0.0
 42
0.2799474061279671
  0
VERTEX
  5
291
  8
0
 10
-154.8820142664334
 20
20.984727858035331
 30
0.0
 42
0.0637571682148192
  0
VERTEX
  5
292
  8
0
 10
-152.76868216823169
 20
19.886088012625951
 30
0.0
 42
-0.3651046212616257
  0
VERTEX
  5
293
  8
0
 10
-149.17002777640749
 20
15.75762714325672
 30
0.0
 42
0.0014686718314058
  0
VERTEX
  5
294
  8
0
 10
-149.26002424658961
 20
14.881033630345801
 30
0.0
 42
-0.36507647963615
  0
VERTEX
  5
295
  8
0
 10
-153.60642238006901
 20
11.54939893672813
 30
0.0
 42
0.0646269866433124
  0
VERTEX
  5
296
  8
0
 10
-155.9255872871523
 20
10.879167256292879
 30
0.0
 42
0.2780547079560574
  0
VERTEX
  5
297
  8
0
 10
-156.52375086081659
 20
10.037710783781829
 30
0.0
 42
0.0073447325918136
  0
VERTEX
  5
298
  8
0
 10
-156.57469558533529
 20
9.2020077975870365
 30
0.0
 42
0.2799474061279655
  0
VERTEX
  5
299
  8
0
 10
-156.0771072739673
 20
8.2905808900229392
 30
0.0
 42
0.0637571682148193
  0
VERTEX
  5
29A
  8
0
 10
-153.88125776730899
 20
7.3678528632891771
 30
0.0
 42
-0.365104621261765
  0
VERTEX
  5
29B
  8
0
 10
-149.958069713491
 20
3.5464528480977271
 30
0.0
 42
0.0014686718313963
  0
VERTEX
  5
29C
  8
0
 10
-149.9763162186436
 20
2.6654405799825489
 30
0.0
 42
-0.365076479636131
  0
VERTEX
  5
29D
  8
0
 10
-154.03669291396909
 20
-1.0093801719025031
 30
0.0
 42
0.0646269866433118
  0
VERTEX
  5
29E
  8
0
 10
-156.293510887059
 20
-1.8664151817151791
 30
0.0
 42
0.2780547079560575
  0
VERTEX
  5
29F
  8
0
 10
-156.8210976065665
 20
-2.7538276615625512
 30
0.0
 42
0.0073447325918136
  0
VERTEX
  5
2A0
  8
0
 10
-156.80375526505409
 20
-3.590902383007446
 30
0.0
 42
0.2799474061279667
  0
VERTEX
  5
2A1
  8
0
 10
-156.2335328835029
 20
-4.458738525963053
 30
0.0
 42
0.0637571682148182
  0
VERTEX
  5
2A2
  8
0
 10
-153.96977898456541
 20
-5.1994141312426763
 30
0.0
 42
-0.3651046212617656
  0
VERTEX
  5
2A3
  8
0
 10
-149.74816543797121
 20
-8.6883225056397748
 30
0.0
 42
0.001468671831401
  0
VERTEX
  5
2A4
  8
0
 10
-149.69454055061291
 20
-9.5678905376740122
 30
0.0
 42
-0.3650764796360852
  0
VERTEX
  5
2A5
  8
0
 10
-153.44187467079229
 20
-13.561442022024981
 30
0.0
 42
0.0646269866433119
  0
VERTEX
  5
2A6
  8
0
 10
-155.62132695862641
 20
-14.59957693462561
 30
0.0
 42
0.2780547079560583
  0
VERTEX
  5
2A7
  8
0
 10
-156.07482582140449
 20
-15.52703983816866
 30
0.0
 42
0.0073447325918136
  0
VERTEX
  5
2A8
  8
0
 10
-155.98931182428259
 20
-16.35991570070005
 30
0.0
 42
0.2799474061279676
  0
VERTEX
  5
2A9
  8
0
 10
-155.35025010841741
 20
-17.178385772698679
 30
0.0
 42
0.0637571682148181
  0
VERTEX
  5
2AA
  8
0
 10
-153.03365672590499
 20
-17.732079882573899
 30
0.0
 42
-0.3651046212616276
  0
VERTEX
  5
2AB
  8
0
 10
-148.54171182817049
 20
-20.865278506572391
 30
0.0
 42
0.0014686718314058
  0
VERTEX
  5
2AC
  8
0
 10
-148.4165724130786
 20
-21.737548922391849
 30
0.0
 42
-0.3650764796361305
  0
VERTEX
  5
2AD
  8
0
 10
-151.8259260678085
 20
-26.02325471297145
 30
0.0
 42
0.0646269866433124
  0
VERTEX
  5
2AE
  8
0
 10
-153.9135087749959
 20
-27.23558091179688
 30
0.0
 42
0.2780547079560545
  0
VERTEX
  5
2AF
  8
0
 10
-154.2899018209348
 20
-28.19692212643314
 30
0.0
 42
0.0073447325918118
  0
VERTEX
  5
2B0
  8
0
 10
-154.13678524974529
 20
-29.020056478600718
 30
0.0
 42
0.2799474061279648
  0
VERTEX
  5
2B1
  8
0
 10
-153.43313704984749
 20
-29.783713696351271
 30
0.0
 42
0.0637571682148187
  0
VERTEX
  5
2B2
  8
0
 10
-151.07912073050969
 20
-30.146741567873981
 30
0.0
 42
-0.3651046212617656
  0
VERTEX
  5
2B3
  8
0
 10
-146.34673763380951
 20
-32.903379521576547
 30
0.0
 42
0.001468671831401
  0
VERTEX
  5
2B4
  8
0
 10
-146.15091647314611
 20
-33.762547505474892
 30
0.0
 42
-0.3650764796361412
  0
VERTEX
  5
2B5
  8
0
 10
-149.1996009763582
 20
-38.311886937337931
 30
0.0
 42
0.0646269866433117
  0
VERTEX
  5
2B6
  8
0
 10
-151.18142158440921
 20
-39.690336591554711
 30
0.0
 42
0.2780547079560547
  0
VERTEX
  5
2B7
  8
0
 10
-151.4782039798888
 20
-40.679158550110927
 30
0.0
 42
0.0073447325918136
  0
VERTEX
  5
2B8
  8
0
 10
-151.25850380015041
 20
-41.487073568608622
 30
0.0
 42
0.2799474061279655
  0
VERTEX
  5
2B9
  8
0
 10
-150.49495177889651
 20
-42.19083591932155
 30
0.0
 42
0.0637571682148186
  0
VERTEX
  5
2BA
  8
0
 10
-148.11917811295319
 20
-42.360781661902138
 30
0.0
 42
-0.3651046212617667
  0
VERTEX
  5
2BB
  8
0
 10
-143.1778500460083
 20
-44.722513974538117
 30
0.0
 42
0.0014686718314058
  0
VERTEX
  5
2BC
  8
0
 10
-142.91265029728851
 20
-45.562861905338188
 30
0.0
 42
-0.365076479636085
  0
VERTEX
  5
2BD
  8
0
 10
-145.5803771566116
 20
-50.345559875152823
 30
0.0
 42
0.064626986643312
  0
VERTEX
  5
2BE
  8
0
 10
-147.44324697635699
 20
-51.880959629740317
 30
0.0
 42
0.2780547079560516
  0
VERTEX
  5
2BF
  8
0
 10
-147.65844368350099
 20
-52.890681885226428
 30
0.0
 42
0.0073447325918136
  0
VERTEX
  5
2C0
  8
0
 10
-147.37362196366209
 20
-53.678001028902742
 30
0.0
 42
0.279947406127958
  0
VERTEX
  5
2C1
  8
0
 10
-146.55524743377629
 20
-54.317185090246639
 30
0.0
 42
0.0637571682148189
  0
VERTEX
  5
2C2
  8
0
 10
-144.17352680299919
 20
-54.292917743007322
 30
0.0
 42
-0.3651046212616254
  0
VERTEX
  5
2C3
  8
0
 10
-139.05613748883431
 20
-56.244027475692718
 30
0.0
 42
0.0014686718314058
  0
VERTEX
  5
2C4
  8
0
 10
-138.72332401263051
 20
-57.059962976562907
 30
0.0
 42
-0.3650764796361412
  0
VERTEX
  5
2C5
  8
0
 10
-140.9923399459592
 20
-62.044191418431247
 30
0.0
 42
0.0646269866433121
  0
VERTEX
  5
2C6
  8
0
 10
-142.72386188610071
 20
-63.726323441345833
 30
0.0
 42
0.2780547079560609
  0
VERTEX
  5
2C7
  8
0
 10
-142.85604080632791
 20
-64.750226458744024
 30
0.0
 42
0.0073447325918136
  0
VERTEX
  5
2C8
  8
0
 10
-142.50799298794169
 20
-65.511710248596302
 30
0.0
 42
0.2799474061279632
  0
VERTEX
  5
2C9
  8
0
 10
-141.64024209689799
 20
-66.082062356100892
 30
0.0
 42
0.0637571682148191
  0
VERTEX
  5
2CA
  8
0
 10
-139.26842445912891
 20
-65.86374341423371
 30
0.0
 42
-0.3651046212617832
  0
VERTEX
  5
2CB
  8
0
 10
-134.00902927931779
 20
-67.391246253611826
 30
0.0
 42
0.001468671831401
  0
VERTEX
  5
2CC
  8
0
 10
-133.6108168944055
 20
-68.177339408410745
 30
0.0
 42
-0.3650764796361321
  0
VERTEX
  5
2CD
  8
0
 10
-135.46602197506519
 20
-73.329929104391056
 30
0.0
 42
0.0646269866433121
  0
VERTEX
  5
2CE
  8
0
 10
-137.05467304277201
 20
-75.147599084552454
 30
0.0
 42
0.2780547079560513
  0
VERTEX
  5
2CF
  8
0
 10
-137.1029545471763
 20
-76.178868958214053
 30
0.0
 42
0.0073447325918155
  0
VERTEX
  5
2D0
  8
0
 10
-136.6939968310503
 20
-76.90944984525683
 30
0.0
 42
0.2799474061279626
  0
VERTEX
  5
2D1
  8
0
 10
-135.78264431785999
 20
-77.407174399748143
 30
0.0
 42
0.063757168214819
  0
VERTEX
  5
2D2
  8
0
 10
-133.4365137281556
 20
-76.996256739791122
 30
0.0
 42
-0.3651046212617754
  0
VERTEX
  5
2D3
  8
0
 10
-128.070113089882
 20
-78.089987406483914
 30
0.0
 42
0.001468671831401
  0
VERTEX
  5
2D4
  8
0
 10
-127.609151833981
 20
-78.841006894965346
 30
0.0
 42
-0.3650764796360851
  0
VERTEX
  5
2D5
  8
0
 10
-129.03819997824749
 20
-84.127668210747856
 30
0.0
 42
0.0646269866433114
  0
VERTEX
  5
2D6
  8
0
 10
-130.473407962773
 20
-86.068779854332547
 30
0.0
 42
0.2780547079560636
  0
VERTEX
  5
2D7
  8
0
 10
-130.4374707459086
 20
-87.100553653395906
 30
0.0
 42
0.0073447325918118
  0
VERTEX
  5
2D8
  8
0
 10
-129.9703246781703
 20
-87.795369742363221
 30
0.0
 42
0.2799474061279645
  0
VERTEX
  5
2D9
  8
0
 10
-129.02143544344591
 20
-88.217154469049873
 30
0.0
 42
0.0637571682148182
  0
VERTEX
  5
2DA
  8
0
 10
-126.7166050137966
 20
-87.616372680233425
 30
0.0
 42
-0.3651046212616273
  0
VERTEX
  5
2DB
  8
0
 10
-121.2789114279159
 20
-88.26905257710537
 30
0.0
 42
0.001468671831401
  0
VERTEX
  5
2DC
  8
0
 10
-120.7582689221302
 20
-88.980000488483284
 30
0.0
 42
-0.3650764796361323
  0
VERTEX
  5
2DD
  8
0
 10
-121.751650050379
 20
-94.365551565250328
 30
0.0
 42
0.0646269866433118
  0
VERTEX
  5
2DE
  8
0
 10
-123.02386387937889
 20
-96.417187094531144
 30
0.0
 42
0.2780547079560569
  0
VERTEX
  5
2DF
  8
0
 10
-122.90394709749459
 20
-97.442598534594126
 30
0.0
 42
0.0073447325918136
  0
VERTEX
  5
2E0
  8
0
 10
-122.3817214581512
 20
-98.097025939050553
 30
0.0
 42
0.2799474061279641
  0
VERTEX
  5
2E1
  8
0
 10
-121.4016102031942
 20
-98.440063930166062
 30
0.0
 42
0.0637571682148186
  0
VERTEX
  5
2E2
  8
0
 10
-119.153418199839
 20
-97.653416116172679
 30
0.0
 42
-0.3651046212617669
  0
VERTEX
  5
2E3
  8
0
 10
-113.680618620006
 20
-97.860701766197906
 30
0.0
 42
0.0014686718314105
  0
VERTEX
  5
2E4
  8
0
 10
-113.1037596543143
 20
-98.526846859417475
 30
0.0
 42
-0.3650764796361429
  0
VERTEX
  5
2E5
  8
0
 10
-113.6548629790335
 20
-103.9754477433062
 30
0.0
 42
0.0646269866433121
  0
VERTEX
  5
2E6
  8
0
 10
-114.7556162793763
 20
-106.1239538623317
 30
0.0
 42
0.2780547079560543
  0
VERTEX
  5
2E7
  8
0
 10
-114.55251795887079
 20
-107.1361789994418
 30
0.0
 42
0.0073447325918155
  0
VERTEX
  5
2E8
  8
0
 10
-113.9786880733909
 20
-107.7458626129835
 30
0.0
 42
0.2799474061279665
  0
VERTEX
  5
2E9
  8
0
 10
-112.9738772768961
 20
-108.0078710072943
 30
0.0
 42
0.0637571682148181
  0
VERTEX
  5
2EA
  8
0
 10
-110.7972850466917
 20
-107.04059217953839
 30
0.0
 42
-0.3651046212617764
  0
VERTEX
  5
2EB
  8
0
 10
-105.3258000511631
 20
-106.8011041309143
 30
0.0
 42
0.001468671831401
  0
VERTEX
  5
2EC
  8
0
 10
-104.69656352680499
 20
-107.41801332028849
 30
0.0
 42
-0.3650764796360857
  0
VERTEX
  5
2ED
  8
0
 10
-104.801721546295
 20
-112.8934044713716
 30
0.0
 42
0.0646269866433127
  0
VERTEX
  5
2EE
  8
0
 10
-105.72368898637841
 20
-115.1244832263984
 30
0.0
 42
0.2780547079560458
  0
VERTEX
  5
2EF
  8
0
 10
-105.4387607130658
 20
-116.1167858692734
 30
0.0
 42
0.0073447325918136
  0
VERTEX
  5
2F0
  8
0
 10
-104.81714532466211
 20
-116.6776683480431
 30
0.0
 42
0.2799474061279731
  0
VERTEX
  5
2F1
  8
0
 10
-103.7943218366978
 20
-116.8569035229134
 30
0.0
 42
0.0637571682148182
  0
VERTEX
  5
2F2
  8
0
 10
-101.70381424182391
 20
-115.7154307624038
 30
0.0
 42
-0.3651046212616277
  0
VERTEX
  5
2F3
  8
0
 10
-96.270055660515581
 20
-115.0307627685799
 30
0.0
 42
0.001468671831401
  0
VERTEX
  5
2F4
  8
0
 10
-95.592629042743212
 20
-115.5943306252364
 30
0.0
 42
-0.3650764796361408
  0
VERTEX
  5
2F5
  8
0
 10
-95.251141947732876
 20
-121.0600742187808
 30
0.0
 42
0.0646269866433124
  0
VERTEX
  5
2F6
  8
0
 10
-95.988187986357019
 20
-123.35887814879619
 30
0.0
 42
0.2780547079560473
  0
VERTEX
  5
2F7
  8
0
 10
-95.623325910886365
 20
-124.3246546870662
 30
0.0
 42
0.0073447325918155
  0
VERTEX
  5
2F8
  8
0
 10
-94.958061767409248
 20
-124.8330034507068
 30
0.0
 42
0.2799474061279659
  0
VERTEX
  5
2F9
  8
0
 10
-93.924032309534184
 20
-124.9282726256194
 30
0.0
 42
0.0637571682148187
  0
VERTEX
  5
2FA
  8
0
 10
-91.933521333125043
 20
-123.6202022452477
 30
0.0
 42
-0.3651046212617671
  0
VERTEX
  5
2FB
  8
0
 10
-86.573649932884834
 20
-122.4949106587629
 30
0.0
 42
0.001468671831401
  0
VERTEX
  5
2FC
  8
0
 10
-85.852541384074812
 20
-123.0013867315963
 30
0.0
 42
-0.3650764796361315
  0
VERTEX
  5
2FD
  8
0
 10
-85.066681714840854
 20
-128.4211091457702
 30
0.0
 42
0.064626986643312
  0
VERTEX
  5
2FE
  8
0
 10
-85.613901432222804
 20
-130.77234008989589
 30
0.0
 42
0.2780547079560489
  0
VERTEX
  5
2FF
  8
0
 10
-85.171533651508327
 20
-131.70516344004071
 30
0.0
 42
0.0073447325918136
  0
VERTEX
  5
300
  8
0
 10
-84.467047976071825
 20
-132.15759551140169
 30
0.0
 42
0.2799474061279655
  0
VERTEX
  5
301
  8
0
 10
-83.428693843725142
 20
-132.168264685716
 30
0.0
 42
0.0637571682148185
  0
VERTEX
  5
302
  8
0
 10
-81.551426007917655
 20
-130.70230167804709
 30
0.0
 42
-0.3651046212617664
  0
VERTEX
  5
303
  8
0
 10
-76.301110848599379
 20
-129.14387512874831
 30
0.0
 42
0.0014686718314058
  0
VERTEX
  5
304
  8
0
 10
-75.541119227167215
 20
-129.5898889030579
 30
0.0
 42
-0.3650764796360841
  0
VERTEX
  5
305
  8
0
 10
-74.316116750151082
 20
-134.92752277938621
 30
0.0
 42
0.0646269866433121
  0
VERTEX
  5
306
  8
0
 10
-74.669868489356489
 20
-137.31553368361489
 30
0.0
 42
0.27805470795606
  0
VERTEX
  5
307
  8
0
 10
-74.152938887993287
 20
-138.20919606014419
 30
0.0
 42
0.0073447325918136
  0
VERTEX
  5
308
  8
0
 10
-73.413919916535505
 20
-138.6027005784367
 30
0.0
 42
0.279947406127967
  0
VERTEX
  5
309
  8
0
 10
-72.378151185151609
 20
-138.52869875055799
 30
0.0
 42
0.0637571682148187
  0
VERTEX
  5
30A
  8
0
 10
-70.626619397665664
 20
-136.91459885754099
 30
0.0
 42
-0.3651046212616262
  0
VERTEX
  5
30B
  8
0
 10
-65.520800460415558
 20
-134.93340841699089
 30
0.0
 42
0.0014686718314058
  0
VERTEX
  5
30C
  8
0
 10
-64.72698338521144
 20
-135.31599174469571
 30
0.0
 42
-0.3650764796361325
  0
VERTEX
  5
30D
  8
0
 10
-63.070990289785229
 20
-140.53601601037971
 30
0.0
 42
0.0646269866433115
  0
VERTEX
  5
30E
  8
0
 10
-63.228919891354643
 20
-142.94491505613769
 30
0.0
 42
0.2780547079560546
  0
VERTEX
  5
30F
  8
0
 10
-62.640868550552433
 20
-143.79346928337969
 30
0.0
 42
0.0073447325918155
  0
VERTEX
  5
310
  8
0
 10
-61.872234332398797
 20
-144.12542754095821
 30
0.0
 42
0.2799474061279645
  0
VERTEX
  5
311
  8
0
 10
-60.845943871995303
 20
-143.96724718084141
 30
0.0
 42
0.0637571682148193
  0
VERTEX
  5
312
  8
0
 10
-59.231804287894178
 20
-142.2157519709568
 30
0.0
 42
-0.3651046212617761
  0
VERTEX
  5
313
  8
0
 10
-54.304459955334742
 20
-139.82498213466519
 30
0.0
 42
0.0014686718313963
  0
VERTEX
  5
314
  8
0
 10
-53.482100148026852
 20
-140.14158898684011
 30
0.0
 42
-0.3650764796361297
  0
VERTEX
  5
315
  8
0
 10
-51.406136795021773
 20
-145.20926524163451
 30
0.0
 42
0.064626986643312
  0
VERTEX
  5
316
  8
0
 10
-51.367193263513293
 20
-147.62302160321281
 30
0.0
 42
0.2780547079560552
  0
VERTEX
  5
317
  8
0
 10
-50.711933567923438
 20
-148.4208206927868
 30
0.0
 42
0.0073447325918118
  0
VERTEX
  5
318
  8
0
 10
-49.918799236980121
 20
-148.68902356221639
 30
0.0
 42
0.2799474061279595
  0
VERTEX
  5
319
  8
0
 10
-48.908816841244942
 20
-148.4477173340602
 30
0.0
 42
0.0637571682148185
  0
VERTEX
  5
31A
  8
0
 10
-47.442811293146598
 20
-146.57048271895329
 30
0.0
 42
-0.3651046212617661
  0
VERTEX
  5
31B
  8
0
 10
-42.726732228858623
 20
-143.78604366573069
 30
0.0
 42
0.001468671831401
  0
VERTEX
  5
31C
  8
0
 10
-41.881302358281992
 20
-144.0345670760118
 30
0.0
 42
-0.3650764796360843
  0
VERTEX
  5
31D
  8
0
 10
-39.399183941303008
 20
-148.91617077054869
 30
0.0
 42
0.064626986643312
  0
VERTEX
  5
31E
  8
0
 10
-39.163626439493612
 20
-151.31872129760271
 30
0.0
 42
0.2780547079560589
  0
VERTEX
  5
31F
  8
0
 10
-38.445519034280039
 20
-152.06045602819509
 30
0.0
 42
0.0073447325918136
  0
VERTEX
  5
320
  8
0
 10
-37.633162768661478
 20
-152.26311866363011
 30
0.0
 42
0.2799474061279646
  0
VERTEX
  5
321
  8
0
 10
-36.64620970380286
 20
-151.94029242057019
 30
0.0
 42
0.0637571682148193
  0
VERTEX
  5
322
  8
0
 10
-35.338094216755991
 20
-149.94981108688259
 30
0.0
 42
-0.3651046212616249
  0
VERTEX
  5
323
  8
0
 10
-30.864665148816041
 20
-146.79023279922791
 30
0.0
 42
0.0014686718314058
  0
VERTEX
  5
324
  8
0
 10
-30.001791411272571
 20
-146.96901888532321
 30
0.0
 42
-0.3650764796361313
  0
VERTEX
  5
325
  8
0
 10
-27.130036018862668
 20
-151.6320637524237
 30
0.0
 42
0.0646269866433121
  0
VERTEX
  5
326
  8
0
 10
-26.699432143062619
 20
-154.00741986758871
 30
0.0
 42
0.2780547079560542
  0
VERTEX
  5
327
  8
0
 10
-25.923255914527662
 20
-154.6881541169451
 30
0.0
 42
0.0073447325918118
  0
VERTEX
  5
328
  8
0
 10
-25.097083811152221
 20
-154.82392783198361
 30
0.0
 42
0.2799474061279671
  0
VERTEX
  5
329
  8
0
 10
-24.139728086980998
 20
-154.4217299294051
 30
0.0
 42
0.0637571682148185
  0
VERTEX
  5
32A
  8
0
 10
-22.998207953728031
 20
-152.33124820200609
 30
0.0
 42
-0.3651046212617657
  0
VERTEX
  5
32B
  8
0
 10
-18.797198814515209
 20
-148.81755715213041
 30
0.0
 42
0.0014686718314058
  0
VERTEX
  5
32C
  8
0
 10
-17.922623492367759
 20
-148.92541612213421
 30
0.0
 42
-0.3650764796361319
  0
VERTEX
  5
32D
  8
0
 10
-14.680342182857659
 20
-153.33887036755581
 30
0.0
 42
0.0646269866433116
  0
VERTEX
  5
32E
  8
0
 10
-14.05755753081578
 20
-155.6712244677916
 30
0.0
 42
0.2780547079560599
  0
VERTEX
  5
32F
  8
0
 10
-13.228477803700249
 20
-156.28642806179579
 30
0.0
 42
0.0073447325918136
  0
VERTEX
  5
330
  8
0
 10
-12.39398790160705
 20
-156.35440930476531
 30
0.0
 42
0.2799474061279645
  0
VERTEX
  5
331
  8
0
 10
-11.47260056251506
 20
-155.8755163033517
 30
0.0
 42
0.0637571682148185
  0
VERTEX
  5
332
  8
0
 10
-10.50527241120523
 20
-153.69894599323209
 30
0.0
 42
-0.3651046212617659
  0
SEQEND
  5
CC
  8
0
  0
CIRCLE
  5
333
  8
0
 10
0.0
 20
0.0
 30
0.0
 40
84.0
  0
ENDSEC
  0
EOF
